<svg xmlns="http://www.w3.org/2000/svg"  viewBox="0 0 50 50" width="25px" height="25px"><path d="M 14.414062 10 C 12.531062 10 11 11.531062 11 13.414062 L 11 17.585938 C 11 18.825479 11.671263 19.901543 12.662109 20.5 C 11.671263 21.098457 11 22.174521 11 23.414062 L 11 27.585938 C 11 28.825479 11.671263 29.901543 12.662109 30.5 C 11.671263 31.098457 11 32.174521 11 33.414062 L 11 37.585938 C 11 39.468938 12.531063 41 14.414062 41 L 35.585938 41 C 37.468938 41 39 39.468938 39 37.585938 L 39 33.414062 C 39 32.174521 38.328737 31.098457 37.337891 30.5 C 38.328737 29.901543 39 28.825479 39 27.585938 L 39 23.414062 C 39 22.174521 38.328737 21.098457 37.337891 20.5 C 38.328737 19.901543 39 18.825479 39 17.585938 L 39 13.414062 C 39 11.531062 37.468938 10 35.585938 10 L 14.414062 10 z M 14.414062 11 L 35.585938 11 C 36.917937 11 38 12.082062 38 13.414062 L 38 17.585938 C 38 18.917938 36.917938 20 35.585938 20 L 14.414062 20 C 13.082063 20 12 18.917938 12 17.585938 L 12 13.414062 C 12 12.082063 13.082063 11 14.414062 11 z M 14.414062 21 L 35.585938 21 C 36.917937 21 38 22.082062 38 23.414062 L 38 27.585938 C 38 28.917938 36.917938 30 35.585938 30 L 14.414062 30 C 13.082063 30 12 28.917938 12 27.585938 L 12 23.414062 C 12 22.082062 13.082063 21 14.414062 21 z M 14.414062 31 L 35.585938 31 C 36.917937 31 38 32.082062 38 33.414062 L 38 37.585938 C 38 38.917937 36.917938 40 35.585938 40 L 14.414062 40 C 13.082063 40 12 38.917938 12 37.585938 L 12 33.414062 C 12 32.082062 13.082063 31 14.414062 31 z"/></svg>