<svg version="1.1" id="Layer_1" xmlns="http://www.w3.org/2000/svg" xmlns:xlink="http://www.w3.org/1999/xlink" x="0px" y="0px"
	 width="100%" viewBox="0 0 620 242" enable-background="new 0 0 620 242" xml:space="preserve">
<path fill="#020100" opacity="1.000000" stroke="none" 
	d="
M466.000000,243.000000 
	C310.666687,243.000000 155.833374,243.000000 1.000041,243.000000 
	C1.000028,162.333359 1.000028,81.666725 1.000014,1.000063 
	C207.666611,1.000042 414.333221,1.000042 620.999878,1.000021 
	C620.999878,81.666603 620.999878,162.333206 620.999939,242.999908 
	C569.500000,243.000000 518.000000,243.000000 466.000000,243.000000 
M247.840637,176.370422 
	C243.583405,185.100021 239.326187,193.829605 235.287003,202.112061 
	C245.163132,198.603989 253.680054,184.708740 251.774582,173.512085 
	C251.609589,172.542587 249.931183,171.830673 248.431412,170.465073 
	C248.439804,169.826981 248.448196,169.188904 248.456589,168.550797 
	C247.367294,169.020233 246.158813,169.321823 245.213089,169.993439 
	C243.134781,171.469421 241.354614,174.159286 239.156433,174.513184 
	C233.997086,175.343826 232.335510,178.453003 231.356644,182.886810 
	C230.439041,187.043091 228.956619,191.072449 227.967270,195.216049 
	C227.474457,197.279999 227.528885,199.474625 227.335770,201.610138 
	C228.184891,201.778702 229.034012,201.947281 229.883133,202.115860 
	C232.084732,195.706909 234.188507,189.261292 236.565918,182.918243 
	C237.075211,181.559418 238.383789,180.253357 239.661804,179.483429 
	C241.965775,178.095398 244.524796,177.130753 247.840637,176.370422 
M292.149170,152.437073 
	C293.095215,151.711853 294.041290,150.986633 295.640900,149.877777 
	C296.240753,145.905792 297.047180,141.950928 297.377869,137.956650 
	C297.664062,134.499557 295.844879,132.914871 292.201019,132.957413 
	C281.207886,133.085754 270.208618,132.852539 259.221008,133.129074 
	C257.422485,133.174332 254.508957,134.793564 254.153076,136.201538 
	C253.520828,138.703003 252.551743,142.293274 257.166901,143.341461 
	C258.170563,143.569412 259.267883,146.037964 259.293854,147.492889 
	C259.481018,157.984665 259.370056,168.481384 259.435516,178.976013 
	C259.450165,181.329193 259.054108,182.624069 256.407593,183.741806 
	C254.921310,184.369507 254.199371,188.033157 254.181320,190.337234 
	C254.173553,191.327103 256.790405,193.131760 258.279053,193.201874 
	C264.760864,193.507172 271.266754,193.261002 277.763000,193.316971 
	C281.049286,193.345291 282.101776,191.610321 282.137817,188.618820 
	C282.171387,185.831039 281.619598,183.043457 278.349365,183.426254 
	C272.294434,184.135010 271.789764,180.874771 272.279327,176.322281 
	C272.438751,174.839783 272.029633,173.255005 272.387482,171.845718 
	C272.804626,170.203018 274.089630,167.284866 274.458954,167.366257 
	C277.045380,167.936295 280.828613,164.776825 282.284485,169.961853 
	C282.668549,171.329819 286.277100,172.523376 288.343811,172.430878 
	C289.720673,172.369263 292.011444,169.961731 292.120667,168.474014 
	C292.496307,163.358490 292.091827,158.185669 292.149170,152.437073 
M494.389465,151.743713 
	C495.929596,151.202316 497.469727,150.660919 499.613953,149.496490 
	C499.786316,145.531067 499.812439,141.552246 500.174377,137.604202 
	C500.501953,134.030746 498.998810,132.913681 495.587311,132.951080 
	C484.938232,133.067810 474.286804,132.992996 463.636414,132.955185 
	C460.977509,132.945755 458.380920,133.142319 458.070374,136.486496 
	C457.794891,139.453171 457.398132,142.644730 461.799530,143.365784 
	C462.587555,143.494873 463.672821,145.189468 463.683289,146.171204 
	C463.812469,158.300262 463.767609,170.431183 463.767609,182.766190 
	C459.062683,183.108139 457.454620,185.566040 458.041931,189.832199 
	C458.685394,194.506241 462.282715,193.270370 465.008789,193.310349 
	C473.659912,193.437241 482.314423,193.331192 490.967621,193.317932 
	C493.881348,193.313477 496.795074,193.317230 500.086273,193.317230 
	C500.086273,188.041565 500.276184,183.554733 499.944550,179.106781 
	C499.867554,178.074158 498.130859,176.540955 496.955719,176.321823 
	C491.650269,175.332413 492.146759,179.832153 491.536835,182.822296 
	C486.445526,182.822296 481.725708,182.822296 477.086182,182.822296 
	C477.086182,177.648727 477.086182,172.911346 477.086182,167.909042 
	C480.829956,168.151382 484.998444,165.573624 486.453644,171.615524 
	C486.663239,172.485886 490.967072,172.875854 493.227478,172.526245 
	C494.304871,172.359634 495.634888,170.001282 495.798401,168.519608 
	C496.179413,165.066727 496.153961,161.522232 495.835297,158.056961 
	C495.653564,156.080811 494.572113,154.187408 494.389465,151.743713 
M490.789490,57.418484 
	C490.527435,56.608299 490.265381,55.798119 489.996307,54.228085 
	C488.015320,44.675751 481.443573,39.712852 472.521942,37.906242 
	C461.663757,35.707466 453.027527,39.658722 446.730682,49.847771 
	C443.097290,41.545193 436.408081,38.477894 428.708099,37.441093 
	C420.711823,36.364399 413.972321,39.815666 407.741669,45.023197 
	C407.421448,37.104103 407.421478,37.113873 399.535522,37.146656 
	C395.204987,37.164661 390.865967,37.306602 386.546326,37.086796 
	C383.213409,36.917206 382.222839,38.273258 382.232422,41.459137 
	C382.311707,67.776176 382.325531,94.093781 382.214203,120.410599 
	C382.199036,123.998886 383.599579,125.078300 386.956879,124.958145 
	C391.947540,124.779526 396.977661,124.573372 401.938141,124.997253 
	C406.901306,125.421371 408.097809,123.540344 408.029236,118.812508 
	C407.775665,101.326897 407.878021,83.835030 407.967285,66.346130 
	C407.999481,60.045574 411.606445,56.929417 417.427094,57.776249 
	C421.874298,58.423264 423.788971,60.991604 423.814850,66.927513 
	C423.891144,84.416534 424.004730,101.907700 423.787384,119.394089 
	C423.732025,123.846901 425.113708,125.301567 429.497498,124.968475 
	C434.134064,124.616173 438.848694,124.573303 443.474731,124.994179 
	C448.468536,125.448509 449.634796,123.462303 449.566833,118.768379 
	C449.318542,101.615746 449.430298,84.457283 449.482025,67.301239 
	C449.501373,60.877319 451.611481,58.150295 456.528229,57.742798 
	C462.163116,57.275780 465.130524,60.165161 465.185425,66.619362 
	C465.314301,81.775414 465.180023,96.934288 465.385834,112.088852 
	C465.495270,120.147263 469.658539,124.237427 477.698792,124.803696 
	C479.854950,124.955544 482.027222,124.905678 484.192047,124.902672 
	C496.081146,124.886169 498.579285,122.434235 498.716583,110.679245 
	C498.788574,104.515823 498.549713,104.319061 491.551483,105.090302 
	C491.366638,105.060341 491.181763,105.030373 490.929901,104.064934 
	C490.821167,88.726685 490.712433,73.388443 490.789490,57.418484 
M336.500183,124.921822 
	C344.831085,124.914528 353.162262,124.948975 361.492767,124.888405 
	C370.126343,124.825638 373.252777,121.775627 373.596375,113.249458 
	C373.938782,104.751991 373.938782,104.755730 365.495697,104.760529 
	C357.064545,104.765327 348.633423,104.761581 339.971558,104.761581 
	C339.971558,101.544655 339.971558,99.054504 339.971558,96.564354 
	C339.971558,94.116272 339.971558,91.668190 339.971558,89.457336 
	C340.825287,89.091789 341.117004,88.859970 341.411346,88.856613 
	C347.573059,88.786270 353.759216,88.386223 359.889557,88.802452 
	C364.975342,89.147751 366.517242,87.156906 365.817108,82.510437 
	C365.694244,81.694969 365.797333,80.846611 365.781067,80.013748 
	C365.621490,71.843552 362.354065,68.560448 354.159058,68.447685 
	C349.565399,68.384468 344.970154,68.436302 340.286499,68.436302 
	C340.286499,64.437210 340.286499,61.198238 340.286499,57.511753 
	C349.238312,57.511753 357.871490,57.586254 366.500885,57.439224 
	C367.958069,57.414394 370.206604,56.844189 370.720093,55.831566 
	C374.942871,47.504097 368.765778,37.216049 359.566010,37.145733 
	C346.070709,37.042591 332.572327,37.246155 319.078888,37.058178 
	C315.274719,37.005180 314.198944,38.402222 314.209839,42.000969 
	C314.289001,68.159546 314.253082,94.318642 314.170959,120.477318 
	C314.161102,123.613899 315.170380,125.030708 318.506897,124.928459 
	C324.166138,124.755005 329.835327,124.905800 336.500183,124.921822 
M190.782730,81.728104 
	C192.011795,82.580826 193.180222,83.542290 194.480377,84.267563 
	C200.290787,87.508835 206.346008,90.372375 211.858307,94.053032 
	C213.731644,95.303886 215.582642,98.936058 215.044678,100.780174 
	C214.522156,102.571342 211.020676,104.303474 208.655014,104.578400 
	C203.725510,105.151276 198.681198,104.677971 193.685913,104.754959 
	C183.386688,104.913689 184.771698,102.994469 184.735397,114.264137 
	C184.714539,120.742805 187.663300,124.526314 193.741516,124.640327 
	C202.526627,124.805115 211.487991,124.937271 220.088745,123.441879 
	C234.141785,120.998489 241.593918,110.998810 241.103699,97.394127 
	C240.739670,87.291794 234.866074,80.851570 226.672745,76.114883 
	C221.776245,73.284142 216.448166,71.138702 211.796051,67.976227 
	C209.903931,66.689987 208.244858,63.416138 208.465958,61.249290 
	C208.611252,59.825230 212.204941,58.013447 214.438904,57.702965 
	C218.522919,57.135353 222.744339,57.601147 226.907333,57.547901 
	C237.377563,57.413982 236.011856,58.623581 236.057266,48.031311 
	C236.084503,41.678749 233.190552,37.760838 227.294479,37.323631 
	C218.004791,36.634785 208.669632,36.364571 199.650558,39.701553 
	C180.602356,46.749222 176.056168,66.734344 190.782730,81.728104 
M262.186340,93.499924 
	C262.173828,102.323700 262.281433,111.150070 262.090302,119.969978 
	C262.012787,123.546730 263.032013,125.154678 266.879944,124.968559 
	C272.195129,124.711479 277.542297,124.704887 282.856537,124.972870 
	C286.878815,125.175690 287.983276,123.576584 287.950531,119.727386 
	C287.790405,100.915298 287.867126,82.101204 287.860321,63.287823 
	C287.859680,61.517551 287.860229,59.747284 287.860229,57.481705 
	C291.689484,57.481705 294.815460,57.490635 297.941376,57.480087 
	C308.750641,57.443607 308.750641,57.441025 308.116699,46.686188 
	C307.776947,40.922203 304.937897,37.382664 299.182739,37.294258 
	C281.040222,37.015575 262.890991,37.119934 244.745438,37.239941 
	C243.673996,37.247028 241.917542,38.510601 241.651810,39.503220 
	C238.541702,51.120441 243.545731,57.464981 255.638000,57.510887 
	C256.303955,57.513416 256.980469,57.590260 257.634094,57.500916 
	C261.158966,57.019100 262.265320,58.599403 262.214203,62.033199 
	C262.063202,72.186661 262.176483,82.344063 262.186340,93.499924 
M398.756592,180.943130 
	C397.100861,177.679413 395.670959,174.273117 393.725769,171.192169 
	C391.787262,168.121780 392.083740,166.266922 394.935394,163.728088 
	C400.488556,158.784180 401.905762,152.256210 400.163361,145.033875 
	C398.544678,138.324097 393.726593,134.601440 387.470947,133.949356 
	C378.422852,133.006149 369.248077,133.142975 360.128937,133.183517 
	C358.950684,133.188766 357.067902,135.198944 356.745117,136.570694 
	C355.835846,140.434662 356.695587,143.665085 361.889252,143.360092 
	C361.889252,156.739944 361.889252,169.687012 361.889252,182.847137 
	C357.302063,182.984314 356.192261,185.736755 356.563660,189.593582 
	C357.004059,194.166443 360.473816,193.271027 363.355560,193.313721 
	C367.518555,193.375427 371.683533,193.369781 375.846893,193.322739 
	C380.929535,193.265335 383.049561,190.725723 381.123016,186.127457 
	C380.375580,184.343445 377.637299,183.393555 375.296448,181.693710 
	C375.296448,178.446442 375.296448,174.335083 375.296448,170.223740 
	C375.650360,169.918716 376.004272,169.613693 376.358154,169.308655 
	C377.695068,170.539612 379.410217,171.547897 380.292419,173.046494 
	C382.312683,176.478455 384.410278,179.996063 385.604767,183.755844 
	C388.149323,191.765121 393.232239,194.695663 401.390564,193.382675 
	C404.137604,192.940582 406.790192,193.264450 406.986969,189.401611 
	C407.173370,185.741287 406.446350,183.126984 401.984375,183.154831 
	C401.033997,183.160751 400.077332,182.163513 398.756592,180.943130 
M323.847412,131.929398 
	C311.220490,133.989899 302.566742,141.525406 300.428467,153.800644 
	C299.336731,160.067886 299.265259,166.790344 300.232697,173.076202 
	C301.836792,183.498917 307.524323,191.464996 318.498108,193.673737 
	C330.129272,196.014832 340.430939,193.228592 347.587067,183.067886 
	C352.463501,176.144073 353.562134,168.099335 353.365997,159.779663 
	C352.924438,141.052277 343.416992,131.725906 323.847412,131.929398 
M453.406311,137.679550 
	C442.798523,128.567703 422.589050,129.901749 413.398407,140.579681 
	C404.496033,150.922729 404.154480,163.031982 407.340576,175.485489 
	C410.008667,185.914337 417.271912,191.932693 427.625763,193.737915 
	C432.299652,194.552811 437.318665,194.432434 442.036469,193.744522 
	C453.615601,192.056168 454.718842,190.245590 454.204712,178.587189 
	C454.035187,174.743378 452.179657,173.807373 448.809967,173.825089 
	C445.558411,173.842163 443.266541,174.400421 443.351624,178.442581 
	C443.381195,179.847778 442.724457,181.987259 441.688965,182.577988 
	C435.051331,186.364685 423.720093,182.415695 421.760132,174.847397 
	C420.096710,168.424164 419.532379,161.371002 420.197540,154.769470 
	C421.241394,144.409485 430.468811,139.658005 440.098572,143.822449 
	C441.601257,144.472305 443.291351,146.817902 443.297302,148.385422 
	C443.312714,152.459061 445.380402,153.075562 448.676422,153.039276 
	C451.919189,153.003601 454.314423,152.391617 454.085785,148.379898 
	C453.896698,145.062897 453.893921,141.735275 453.406311,137.679550 
M155.126495,36.625118 
	C152.442215,35.270329 149.729019,32.751034 147.080032,32.816856 
	C142.383270,32.933559 137.736313,34.672493 133.048462,35.634975 
	C128.233475,36.623554 123.348778,37.309155 118.581329,38.480457 
	C115.134972,39.327179 110.927567,39.831364 108.629326,42.087418 
	C101.284256,49.297630 94.603386,57.194542 87.838554,64.976265 
	C86.650414,66.343002 86.294464,68.433182 86.018692,69.087372 
	C93.467506,62.330421 101.548347,55.252815 109.306252,47.837357 
	C112.372101,44.906841 115.480942,43.340435 119.784088,42.990303 
	C124.824753,42.580162 129.790451,41.148045 134.764313,40.049011 
	C138.795776,39.158215 142.751968,37.856640 146.816864,37.212799 
	C149.383865,36.806210 151.522278,37.920116 150.991638,41.193848 
	C150.310165,45.398140 152.603821,47.745300 155.988068,49.441284 
	C158.515472,50.707878 161.026184,52.018612 163.612610,53.154114 
	C167.569839,54.891430 171.767548,57.172153 173.085770,50.933819 
	C170.989380,50.795757 168.219269,51.244877 165.996399,50.343880 
	C160.230850,48.006924 153.517792,46.018665 155.126495,36.625118 
M104.868721,118.716789 
	C94.355713,121.847748 91.606209,112.549423 86.674644,105.516006 
	C85.078148,115.251701 91.188362,123.478691 99.570786,123.521431 
	C104.901291,123.548607 110.228790,121.575043 115.582504,120.641251 
	C118.645500,120.106995 121.951439,119.007278 124.809097,119.655708 
	C131.049561,121.071732 137.073547,123.441757 143.291367,125.456169 
	C143.291367,129.105194 143.291367,133.942169 143.291367,138.779129 
	C143.568085,138.794266 143.844818,138.809402 144.121536,138.824554 
	C145.464478,132.617920 146.807434,126.411301 148.303009,119.499229 
	C145.173340,119.658554 142.713715,120.035461 140.300476,119.839882 
	C137.577011,119.619156 134.335587,119.667389 132.305359,118.217796 
	C127.198631,114.571533 122.043716,114.002831 116.275360,115.750084 
	C112.784218,116.807564 109.229240,117.654289 104.868721,118.716789 
M157.977158,182.344009 
	C156.133179,177.647171 157.200928,173.281693 159.232895,168.892242 
	C162.655212,161.499451 160.506897,155.980591 152.292343,151.810822 
	C153.594055,154.153717 154.396790,156.127914 155.654175,157.749588 
	C158.140976,160.956848 158.156250,163.766022 155.770218,167.180634 
	C154.222397,169.395721 152.848495,172.379578 152.924713,174.974091 
	C153.331329,188.818298 157.085251,201.709641 164.992172,213.279556 
	C166.692398,215.767426 167.765213,218.676956 169.232529,221.333984 
	C170.016769,222.754074 171.026123,224.049835 171.933899,225.401688 
	C172.397171,225.213364 172.860443,225.025055 173.323715,224.836731 
	C172.641998,221.402115 173.057632,217.047043 171.084991,214.695221 
	C163.329880,205.449417 161.713455,193.952530 157.977158,182.344009 
M223.592682,162.542801 
	C226.266281,172.321625 222.852478,178.875717 213.447647,182.758331 
	C211.178635,183.695038 209.547211,186.176163 207.622574,187.947067 
	C207.947296,188.362839 208.272003,188.778625 208.596725,189.194412 
	C211.825897,187.721451 215.013153,186.146866 218.291763,184.793686 
	C230.223022,179.869446 233.164124,166.497971 223.943359,155.881409 
	C223.798737,158.199020 223.689438,159.950287 223.592682,162.542801 
M207.495575,203.241898 
	C208.821014,199.782700 210.146439,196.323502 211.471863,192.864319 
	C210.759521,192.543137 210.047165,192.221939 209.334808,191.900757 
	C206.905945,195.922195 203.795715,199.691635 202.195038,204.019379 
	C199.186584,212.153183 195.318497,219.373962 187.741730,224.095078 
	C187.598267,224.184464 187.698090,224.664307 187.655899,225.581360 
	C194.555115,224.086929 200.097733,221.127197 203.093872,214.607925 
	C204.680908,211.154800 205.854034,207.511459 207.495575,203.241898 
z"/>
<path fill="#FAF800" opacity="1.000000" stroke="none" 
	d="
M492.096771,105.225571 
	C498.549713,104.319061 498.788574,104.515823 498.716583,110.679245 
	C498.579285,122.434235 496.081146,124.886169 484.192047,124.902672 
	C482.027222,124.905678 479.854950,124.955544 477.698792,124.803696 
	C469.658539,124.237427 465.495270,120.147263 465.385834,112.088852 
	C465.180023,96.934288 465.314301,81.775414 465.185425,66.619362 
	C465.130524,60.165161 462.163116,57.275780 456.528229,57.742798 
	C451.611481,58.150295 449.501373,60.877319 449.482025,67.301239 
	C449.430298,84.457283 449.318542,101.615746 449.566833,118.768379 
	C449.634796,123.462303 448.468536,125.448509 443.474731,124.994179 
	C438.848694,124.573303 434.134064,124.616173 429.497498,124.968475 
	C425.113708,125.301567 423.732025,123.846901 423.787384,119.394089 
	C424.004730,101.907700 423.891144,84.416534 423.814850,66.927513 
	C423.788971,60.991604 421.874298,58.423264 417.427094,57.776249 
	C411.606445,56.929417 407.999481,60.045574 407.967285,66.346130 
	C407.878021,83.835030 407.775665,101.326897 408.029236,118.812508 
	C408.097809,123.540344 406.901306,125.421371 401.938141,124.997253 
	C396.977661,124.573372 391.947540,124.779526 386.956879,124.958145 
	C383.599579,125.078300 382.199036,123.998886 382.214203,120.410599 
	C382.325531,94.093781 382.311707,67.776176 382.232422,41.459137 
	C382.222839,38.273258 383.213409,36.917206 386.546326,37.086796 
	C390.865967,37.306602 395.204987,37.164661 399.535522,37.146656 
	C407.421478,37.113873 407.421448,37.104103 407.741669,45.023197 
	C413.972321,39.815666 420.711823,36.364399 428.708099,37.441093 
	C436.408081,38.477894 443.097290,41.545193 446.730682,49.847771 
	C453.027527,39.658722 461.663757,35.707466 472.521942,37.906242 
	C481.443573,39.712852 488.015320,44.675751 489.895874,54.926697 
	C490.064850,56.433609 490.334259,57.241905 490.603699,58.050194 
	C490.712433,73.388443 490.821167,88.726685 490.887573,104.906631 
	C490.948883,107.045639 491.052551,108.342957 491.156219,109.640266 
	C491.399719,109.619179 491.643188,109.598083 491.886688,109.576988 
	C491.956726,108.126518 492.026733,106.676048 492.096771,105.225571 
z"/>
<path fill="#FAF800" opacity="1.000000" stroke="none" 
	d="
M336.000244,124.921066 
	C329.835327,124.905800 324.166138,124.755005 318.506897,124.928459 
	C315.170380,125.030708 314.161102,123.613899 314.170959,120.477318 
	C314.253082,94.318642 314.289001,68.159546 314.209839,42.000969 
	C314.198944,38.402222 315.274719,37.005180 319.078888,37.058178 
	C332.572327,37.246155 346.070709,37.042591 359.566010,37.145733 
	C368.765778,37.216049 374.942871,47.504097 370.720093,55.831566 
	C370.206604,56.844189 367.958069,57.414394 366.500885,57.439224 
	C357.871490,57.586254 349.238312,57.511753 340.286499,57.511753 
	C340.286499,61.198238 340.286499,64.437210 340.286499,68.436302 
	C344.970154,68.436302 349.565399,68.384468 354.159058,68.447685 
	C362.354065,68.560448 365.621490,71.843552 365.781067,80.013748 
	C365.797333,80.846611 365.694244,81.694969 365.817108,82.510437 
	C366.517242,87.156906 364.975342,89.147751 359.889557,88.802452 
	C353.759216,88.386223 347.573059,88.786270 341.411346,88.856613 
	C341.117004,88.859970 340.825287,89.091789 339.971558,89.457336 
	C339.971558,91.668190 339.971558,94.116272 339.971558,96.564354 
	C339.971558,99.054504 339.971558,101.544655 339.971558,104.761581 
	C348.633423,104.761581 357.064545,104.765327 365.495697,104.760529 
	C373.938782,104.755730 373.938782,104.751991 373.596375,113.249458 
	C373.252777,121.775627 370.126343,124.825638 361.492767,124.888405 
	C353.162262,124.948975 344.831085,124.914528 336.000244,124.921066 
z"/>
<path fill="#FAF800" opacity="1.000000" stroke="none" 
	d="
M190.524017,81.484848 
	C176.056168,66.734344 180.602356,46.749222 199.650558,39.701553 
	C208.669632,36.364571 218.004791,36.634785 227.294479,37.323631 
	C233.190552,37.760838 236.084503,41.678749 236.057266,48.031311 
	C236.011856,58.623581 237.377563,57.413982 226.907333,57.547901 
	C222.744339,57.601147 218.522919,57.135353 214.438904,57.702965 
	C212.204941,58.013447 208.611252,59.825230 208.465958,61.249290 
	C208.244858,63.416138 209.903931,66.689987 211.796051,67.976227 
	C216.448166,71.138702 221.776245,73.284142 226.672745,76.114883 
	C234.866074,80.851570 240.739670,87.291794 241.103699,97.394127 
	C241.593918,110.998810 234.141785,120.998489 220.088745,123.441879 
	C211.487991,124.937271 202.526627,124.805115 193.741516,124.640327 
	C187.663300,124.526314 184.714539,120.742805 184.735397,114.264137 
	C184.771698,102.994469 183.386688,104.913689 193.685913,104.754959 
	C198.681198,104.677971 203.725510,105.151276 208.655014,104.578400 
	C211.020676,104.303474 214.522156,102.571342 215.044678,100.780174 
	C215.582642,98.936058 213.731644,95.303886 211.858307,94.053032 
	C206.346008,90.372375 200.290787,87.508835 194.480377,84.267563 
	C193.180222,83.542290 192.011795,82.580826 190.524017,81.484848 
z"/>
<path fill="#FAF800" opacity="1.000000" stroke="none" 
	d="
M262.186340,92.999924 
	C262.176483,82.344063 262.063202,72.186661 262.214203,62.033199 
	C262.265320,58.599403 261.158966,57.019100 257.634094,57.500916 
	C256.980469,57.590260 256.303955,57.513416 255.638000,57.510887 
	C243.545731,57.464981 238.541702,51.120441 241.651810,39.503220 
	C241.917542,38.510601 243.673996,37.247028 244.745438,37.239941 
	C262.890991,37.119934 281.040222,37.015575 299.182739,37.294258 
	C304.937897,37.382664 307.776947,40.922203 308.116699,46.686188 
	C308.750641,57.441025 308.750641,57.443607 297.941376,57.480087 
	C294.815460,57.490635 291.689484,57.481705 287.860229,57.481705 
	C287.860229,59.747284 287.859680,61.517551 287.860321,63.287823 
	C287.867126,82.101204 287.790405,100.915298 287.950531,119.727386 
	C287.983276,123.576584 286.878815,125.175690 282.856537,124.972870 
	C277.542297,124.704887 272.195129,124.711479 266.879944,124.968559 
	C263.032013,125.154678 262.012787,123.546730 262.090302,119.969978 
	C262.281433,111.150070 262.173828,102.323700 262.186340,92.999924 
z"/>
<path fill="#FAF700" opacity="1.000000" stroke="none" 
	d="
M398.940063,181.285782 
	C400.077332,182.163513 401.033997,183.160751 401.984375,183.154831 
	C406.446350,183.126984 407.173370,185.741287 406.986969,189.401611 
	C406.790192,193.264450 404.137604,192.940582 401.390564,193.382675 
	C393.232239,194.695663 388.149323,191.765121 385.604767,183.755844 
	C384.410278,179.996063 382.312683,176.478455 380.292419,173.046494 
	C379.410217,171.547897 377.695068,170.539612 376.358154,169.308655 
	C376.004272,169.613693 375.650360,169.918716 375.296448,170.223740 
	C375.296448,174.335083 375.296448,178.446442 375.296448,181.693710 
	C377.637299,183.393555 380.375580,184.343445 381.123016,186.127457 
	C383.049561,190.725723 380.929535,193.265335 375.846893,193.322739 
	C371.683533,193.369781 367.518555,193.375427 363.355560,193.313721 
	C360.473816,193.271027 357.004059,194.166443 356.563660,189.593582 
	C356.192261,185.736755 357.302063,182.984314 361.889252,182.847137 
	C361.889252,169.687012 361.889252,156.739944 361.889252,143.360092 
	C356.695587,143.665085 355.835846,140.434662 356.745117,136.570694 
	C357.067902,135.198944 358.950684,133.188766 360.128937,133.183517 
	C369.248077,133.142975 378.422852,133.006149 387.470947,133.949356 
	C393.726593,134.601440 398.544678,138.324097 400.163361,145.033875 
	C401.905762,152.256210 400.488556,158.784180 394.935394,163.728088 
	C392.083740,166.266922 391.787262,168.121780 393.725769,171.192169 
	C395.670959,174.273117 397.100861,177.679413 398.940063,181.285782 
M378.927734,159.748169 
	C382.622101,158.978638 386.084686,157.870697 387.359558,153.727692 
	C389.596954,146.456833 384.073334,141.783646 374.760345,143.765579 
	C374.760345,148.073303 374.862183,152.540833 374.721436,157.000687 
	C374.639343,159.603531 375.892639,160.170715 378.927734,159.748169 
z"/>
<path fill="#FAF700" opacity="1.000000" stroke="none" 
	d="
M324.300781,131.896088 
	C343.416992,131.725906 352.924438,141.052277 353.365997,159.779663 
	C353.562134,168.099335 352.463501,176.144073 347.587067,183.067886 
	C340.430939,193.228592 330.129272,196.014832 318.498108,193.673737 
	C307.524323,191.464996 301.836792,183.498917 300.232697,173.076202 
	C299.265259,166.790344 299.336731,160.067886 300.428467,153.800644 
	C302.566742,141.525406 311.220490,133.989899 324.300781,131.896088 
M337.880463,175.038651 
	C340.169189,167.371353 340.261993,159.651733 338.083984,151.978149 
	C336.230042,145.446411 332.165192,142.462265 325.804260,142.550812 
	C319.607056,142.637070 314.920410,145.819565 313.972321,152.441132 
	C313.072357,158.726486 313.341248,165.293884 313.974823,171.649689 
	C314.532898,177.247757 317.599182,181.634537 323.701996,182.782288 
	C329.912323,183.950241 333.891174,181.889236 337.880463,175.038651 
z"/>
<path fill="#F9F500" opacity="1.000000" stroke="none" 
	d="
M493.895782,152.256729 
	C494.572113,154.187408 495.653564,156.080811 495.835297,158.056961 
	C496.153961,161.522232 496.179413,165.066727 495.798401,168.519608 
	C495.634888,170.001282 494.304871,172.359634 493.227478,172.526245 
	C490.967072,172.875854 486.663239,172.485886 486.453644,171.615524 
	C484.998444,165.573624 480.829956,168.151382 477.086182,167.909042 
	C477.086182,172.911346 477.086182,177.648727 477.086182,182.822296 
	C481.725708,182.822296 486.445526,182.822296 491.536835,182.822296 
	C492.146759,179.832153 491.650269,175.332413 496.955719,176.321823 
	C498.130859,176.540955 499.867554,178.074158 499.944550,179.106781 
	C500.276184,183.554733 500.086273,188.041565 500.086273,193.317230 
	C496.795074,193.317230 493.881348,193.313477 490.967621,193.317932 
	C482.314423,193.331192 473.659912,193.437241 465.008789,193.310349 
	C462.282715,193.270370 458.685394,194.506241 458.041931,189.832199 
	C457.454620,185.566040 459.062683,183.108139 463.767609,182.766190 
	C463.767609,170.431183 463.812469,158.300262 463.683289,146.171204 
	C463.672821,145.189468 462.587555,143.494873 461.799530,143.365784 
	C457.398132,142.644730 457.794891,139.453171 458.070374,136.486496 
	C458.380920,133.142319 460.977509,132.945755 463.636414,132.955185 
	C474.286804,132.992996 484.938232,133.067810 495.587311,132.951080 
	C498.998810,132.913681 500.501953,134.030746 500.174377,137.604202 
	C499.812439,141.552246 499.786316,145.531067 498.867004,149.793503 
	C494.348480,150.202972 489.996735,151.256348 490.492340,144.901520 
	C490.533875,144.369141 488.923584,143.235138 488.036102,143.185974 
	C484.446472,142.987030 480.839386,143.103409 476.650543,143.103409 
	C476.650543,147.405319 476.477264,151.023651 476.755035,154.607040 
	C476.839478,155.696808 478.136780,157.535233 478.932678,157.564575 
	C481.072235,157.643494 485.017517,157.190750 485.119904,156.491333 
	C486.020447,150.341843 490.338715,152.241806 493.895782,152.256729 
z"/>
<path fill="#F8F500" opacity="1.000000" stroke="none" 
	d="
M291.984619,153.034683 
	C292.091827,158.185669 292.496307,163.358490 292.120667,168.474014 
	C292.011444,169.961731 289.720673,172.369263 288.343811,172.430878 
	C286.277100,172.523376 282.668549,171.329819 282.284485,169.961853 
	C280.828613,164.776825 277.045380,167.936295 274.458954,167.366257 
	C274.089630,167.284866 272.804626,170.203018 272.387482,171.845718 
	C272.029633,173.255005 272.438751,174.839783 272.279327,176.322281 
	C271.789764,180.874771 272.294434,184.135010 278.349365,183.426254 
	C281.619598,183.043457 282.171387,185.831039 282.137817,188.618820 
	C282.101776,191.610321 281.049286,193.345291 277.763000,193.316971 
	C271.266754,193.261002 264.760864,193.507172 258.279053,193.201874 
	C256.790405,193.131760 254.173553,191.327103 254.181320,190.337234 
	C254.199371,188.033157 254.921310,184.369507 256.407593,183.741806 
	C259.054108,182.624069 259.450165,181.329193 259.435516,178.976013 
	C259.370056,168.481384 259.481018,157.984665 259.293854,147.492889 
	C259.267883,146.037964 258.170563,143.569412 257.166901,143.341461 
	C252.551743,142.293274 253.520828,138.703003 254.153076,136.201538 
	C254.508957,134.793564 257.422485,133.174332 259.221008,133.129074 
	C270.208618,132.852539 281.207886,133.085754 292.201019,132.957413 
	C295.844879,132.914871 297.664062,134.499557 297.377869,137.956650 
	C297.047180,141.950928 296.240753,145.905792 294.879944,150.010391 
	C289.307068,150.688904 285.792694,149.663239 286.761536,143.115189 
	C282.579651,143.115189 278.791077,142.933273 275.041992,143.237656 
	C274.051788,143.318054 272.472321,144.834976 272.386017,145.801422 
	C272.066803,149.376877 272.259003,152.998016 272.259003,156.809479 
	C275.777954,156.809479 278.676270,156.809479 281.512726,156.809479 
	C282.675110,151.225754 285.502991,150.278641 291.984619,153.034683 
z"/>
<path fill="#F7F500" opacity="1.000000" stroke="none" 
	d="
M453.607422,138.045959 
	C453.893921,141.735275 453.896698,145.062897 454.085785,148.379898 
	C454.314423,152.391617 451.919189,153.003601 448.676422,153.039276 
	C445.380402,153.075562 443.312714,152.459061 443.297302,148.385422 
	C443.291351,146.817902 441.601257,144.472305 440.098572,143.822449 
	C430.468811,139.658005 421.241394,144.409485 420.197540,154.769470 
	C419.532379,161.371002 420.096710,168.424164 421.760132,174.847397 
	C423.720093,182.415695 435.051331,186.364685 441.688965,182.577988 
	C442.724457,181.987259 443.381195,179.847778 443.351624,178.442581 
	C443.266541,174.400421 445.558411,173.842163 448.809967,173.825089 
	C452.179657,173.807373 454.035187,174.743378 454.204712,178.587189 
	C454.718842,190.245590 453.615601,192.056168 442.036469,193.744522 
	C437.318665,194.432434 432.299652,194.552811 427.625763,193.737915 
	C417.271912,191.932693 410.008667,185.914337 407.340576,175.485489 
	C404.154480,163.031982 404.496033,150.922729 413.398407,140.579681 
	C422.589050,129.901749 442.798523,128.567703 453.607422,138.045959 
z"/>
<path fill="#E5E000" opacity="1.000000" stroke="none" 
	d="
M155.312424,36.959358 
	C153.517792,46.018665 160.230850,48.006924 165.996399,50.343880 
	C168.219269,51.244877 170.989380,50.795757 173.085770,50.933819 
	C171.767548,57.172153 167.569839,54.891430 163.612610,53.154114 
	C161.026184,52.018612 158.515472,50.707878 155.988068,49.441284 
	C152.603821,47.745300 150.310165,45.398140 150.991638,41.193848 
	C151.522278,37.920116 149.383865,36.806210 146.816864,37.212799 
	C142.751968,37.856640 138.795776,39.158215 134.764313,40.049011 
	C129.790451,41.148045 124.824753,42.580162 119.784088,42.990303 
	C115.480942,43.340435 112.372101,44.906841 109.306252,47.837357 
	C101.548347,55.252815 93.467506,62.330421 86.018692,69.087372 
	C86.294464,68.433182 86.650414,66.343002 87.838554,64.976265 
	C94.603386,57.194542 101.284256,49.297630 108.629326,42.087418 
	C110.927567,39.831364 115.134972,39.327179 118.581329,38.480457 
	C123.348778,37.309155 128.233475,36.623554 133.048462,35.634975 
	C137.736313,34.672493 142.383270,32.933559 147.080032,32.816856 
	C149.729019,32.751034 152.442215,35.270329 155.312424,36.959358 
z"/>
<path fill="#E9E200" opacity="1.000000" stroke="none" 
	d="
M105.285828,118.656242 
	C109.229240,117.654289 112.784218,116.807564 116.275360,115.750084 
	C122.043716,114.002831 127.198631,114.571533 132.305359,118.217796 
	C134.335587,119.667389 137.577011,119.619156 140.300476,119.839882 
	C142.713715,120.035461 145.173340,119.658554 148.303009,119.499229 
	C146.807434,126.411301 145.464478,132.617920 144.121536,138.824554 
	C143.844818,138.809402 143.568085,138.794266 143.291367,138.779129 
	C143.291367,133.942169 143.291367,129.105194 143.291367,125.456169 
	C137.073547,123.441757 131.049561,121.071732 124.809097,119.655708 
	C121.951439,119.007278 118.645500,120.106995 115.582504,120.641251 
	C110.228790,121.575043 104.901291,123.548607 99.570786,123.521431 
	C91.188362,123.478691 85.078148,115.251701 86.674644,105.516006 
	C91.606209,112.549423 94.355713,121.847748 105.285828,118.656242 
z"/>
<path fill="#EDE800" opacity="1.000000" stroke="none" 
	d="
M158.065643,182.747406 
	C161.713455,193.952530 163.329880,205.449417 171.084991,214.695221 
	C173.057632,217.047043 172.641998,221.402115 173.323715,224.836731 
	C172.860443,225.025055 172.397171,225.213364 171.933899,225.401688 
	C171.026123,224.049835 170.016769,222.754074 169.232529,221.333984 
	C167.765213,218.676956 166.692398,215.767426 164.992172,213.279556 
	C157.085251,201.709641 153.331329,188.818298 152.924713,174.974091 
	C152.848495,172.379578 154.222397,169.395721 155.770218,167.180634 
	C158.156250,163.766022 158.140976,160.956848 155.654175,157.749588 
	C154.396790,156.127914 153.594055,154.153717 152.292343,151.810822 
	C160.506897,155.980591 162.655212,161.499451 159.232895,168.892242 
	C157.200928,173.281693 156.133179,177.647171 158.065643,182.747406 
z"/>
<path fill="#E5E200" opacity="1.000000" stroke="none" 
	d="
M246.977295,175.989258 
	C244.524796,177.130753 241.965775,178.095398 239.661804,179.483429 
	C238.383789,180.253357 237.075211,181.559418 236.565918,182.918243 
	C234.188507,189.261292 232.084732,195.706909 229.883133,202.115860 
	C229.034012,201.947281 228.184891,201.778702 227.335770,201.610138 
	C227.528885,199.474625 227.474457,197.279999 227.967270,195.216049 
	C228.956619,191.072449 230.439041,187.043091 231.356644,182.886810 
	C232.335510,178.453003 233.997086,175.343826 239.156433,174.513184 
	C241.354614,174.159286 243.134781,171.469421 245.213089,169.993439 
	C246.158813,169.321823 247.367294,169.020233 248.456589,168.550812 
	C248.448196,169.188904 248.439804,169.826981 248.728394,170.731369 
	C249.025391,170.997665 249.009888,170.929764 248.621674,170.926239 
	C248.135742,171.632874 248.038040,172.343048 247.987122,173.034714 
	C248.033920,173.016205 248.002502,172.920609 247.612549,173.030365 
	C247.131104,174.100891 247.039627,175.061691 246.974792,176.029388 
	C247.001450,176.036301 246.977295,175.989258 246.977295,175.989258 
z"/>
<path fill="#E2DA00" opacity="1.000000" stroke="none" 
	d="
M223.586426,162.122192 
	C223.689438,159.950287 223.798737,158.199020 223.943359,155.881409 
	C233.164124,166.497971 230.223022,179.869446 218.291763,184.793686 
	C215.013153,186.146866 211.825897,187.721451 208.596725,189.194412 
	C208.272003,188.778625 207.947296,188.362839 207.622574,187.947067 
	C209.547211,186.176163 211.178635,183.695038 213.447647,182.758331 
	C222.852478,178.875717 226.266281,172.321625 223.586426,162.122192 
z"/>
<path fill="#E1DA00" opacity="1.000000" stroke="none" 
	d="
M207.354797,203.597931 
	C205.854034,207.511459 204.680908,211.154800 203.093872,214.607925 
	C200.097733,221.127197 194.555115,224.086929 187.655899,225.581360 
	C187.698090,224.664307 187.598267,224.184464 187.741730,224.095078 
	C195.318497,219.373962 199.186584,212.153183 202.195038,204.019379 
	C203.795715,199.691635 206.905945,195.922195 209.334808,191.900757 
	C210.047165,192.221939 210.759521,192.543137 211.471863,192.864319 
	C210.146439,196.323502 208.821014,199.782700 207.354797,203.597931 
z"/>
<path fill="#191100" opacity="1.000000" stroke="none" 
	d="
M292.066895,152.735870 
	C285.502991,150.278641 282.675110,151.225754 281.512726,156.809479 
	C278.676270,156.809479 275.777954,156.809479 272.259003,156.809479 
	C272.259003,152.998016 272.066803,149.376877 272.386017,145.801422 
	C272.472321,144.834976 274.051788,143.318054 275.041992,143.237656 
	C278.791077,142.933273 282.579651,143.115189 286.761536,143.115189 
	C285.792694,149.663239 289.307068,150.688904 294.553162,150.202209 
	C294.041290,150.986633 293.095215,151.711853 292.066895,152.735870 
z"/>
<path fill="#180E00" opacity="1.000000" stroke="none" 
	d="
M494.142639,152.000214 
	C490.338715,152.241806 486.020447,150.341843 485.119904,156.491333 
	C485.017517,157.190750 481.072235,157.643494 478.932678,157.564575 
	C478.136780,157.535233 476.839478,155.696808 476.755035,154.607040 
	C476.477264,151.023651 476.650543,147.405319 476.650543,143.103409 
	C480.839386,143.103409 484.446472,142.987030 488.036102,143.185974 
	C488.923584,143.235138 490.533875,144.369141 490.492340,144.901520 
	C489.996735,151.256348 494.348480,150.202972 498.564941,150.105026 
	C497.469727,150.660919 495.929596,151.202316 494.142639,152.000214 
z"/>
<path fill="#E0D900" opacity="1.000000" stroke="none" 
	d="
M248.990570,170.998383 
	C249.931183,171.830673 251.609589,172.542587 251.774582,173.512085 
	C253.680054,184.708740 245.163132,198.603989 235.287003,202.112061 
	C239.326187,193.829605 243.583405,185.100021 247.408966,176.179840 
	C246.977295,175.989258 247.001450,176.036301 247.437546,176.152069 
	C247.916595,175.152100 247.959549,174.036362 248.002502,172.920609 
	C248.002502,172.920609 248.033920,173.016205 248.413177,173.072144 
	C248.864929,172.395294 248.937408,171.662537 249.009888,170.929764 
	C249.009888,170.929764 249.025391,170.997665 248.990570,170.998383 
z"/>
<path fill="#C1B600" opacity="1.000000" stroke="none" 
	d="
M491.824127,105.157936 
	C492.026733,106.676048 491.956726,108.126518 491.886688,109.576988 
	C491.643188,109.598083 491.399719,109.619179 491.156219,109.640266 
	C491.052551,108.342957 490.948883,107.045639 490.921082,105.374367 
	C491.181763,105.030373 491.366638,105.060341 491.824127,105.157936 
z"/>
<path fill="#C1B600" opacity="1.000000" stroke="none" 
	d="
M490.696594,57.734341 
	C490.334259,57.241905 490.064850,56.433609 489.899384,55.306625 
	C490.265381,55.798119 490.527435,56.608299 490.696594,57.734341 
z"/>
<path fill="#0F0A00" opacity="1.000000" stroke="none" 
	d="
M378.509369,159.793457 
	C375.892639,160.170715 374.639343,159.603531 374.721436,157.000687 
	C374.862183,152.540833 374.760345,148.073303 374.760345,143.765579 
	C384.073334,141.783646 389.596954,146.456833 387.359558,153.727692 
	C386.084686,157.870697 382.622101,158.978638 378.509369,159.793457 
z"/>
<path fill="#050300" opacity="1.000000" stroke="none" 
	d="
M337.762268,175.412933 
	C333.891174,181.889236 329.912323,183.950241 323.701996,182.782288 
	C317.599182,181.634537 314.532898,177.247757 313.974823,171.649689 
	C313.341248,165.293884 313.072357,158.726486 313.972321,152.441132 
	C314.920410,145.819565 319.607056,142.637070 325.804260,142.550812 
	C332.165192,142.462265 336.230042,145.446411 338.083984,151.978149 
	C340.261993,159.651733 340.169189,167.371353 337.762268,175.412933 
z"/>
<path fill="#020100" opacity="1.000000" stroke="none" 
	d="
M247.612549,173.030365 
	C247.959549,174.036362 247.916595,175.152100 247.410889,176.145172 
	C247.039627,175.061691 247.131104,174.100891 247.612549,173.030365 
z"/>
<path fill="#020100" opacity="1.000000" stroke="none" 
	d="
M248.621674,170.926239 
	C248.937408,171.662537 248.864929,172.395294 248.366394,173.090637 
	C248.038040,172.343048 248.135742,171.632874 248.621674,170.926239 
z"/>
</svg>