<svg version="1.1" id="Layer_1" xmlns="http://www.w3.org/2000/svg" xmlns:xlink="http://www.w3.org/1999/xlink" x="0px" y="0px"
	 width="100%" viewBox="0 0 1080 1073" enable-background="new 0 0 1080 1073" xml:space="preserve">
<path fill="#FFFFFF" opacity="1.000000" stroke="none" 
	d="
M716.000000,1074.000000 
	C477.360901,1074.000000 239.221832,1074.000000 1.041374,1074.000000 
	C1.041374,716.402344 1.041374,358.804688 1.041374,1.103507 
	C360.889282,1.103507 720.778625,1.103507 1080.833984,1.103507 
	C1080.833984,358.666595 1080.833984,716.333313 1080.833984,1074.000000 
	C959.470947,1074.000000 837.985474,1074.000000 716.000000,1074.000000 
M520.500000,282.995117 
	C410.351807,282.995148 300.203583,283.024841 190.055527,282.893921 
	C185.326050,282.888306 183.901245,284.027100 183.906372,288.914551 
	C184.040497,416.893005 184.048599,544.871704 183.884613,672.850098 
	C183.877884,678.100098 185.421555,679.099121 190.326614,679.096619 
	C424.120819,678.977478 657.915100,678.976868 891.709290,679.100159 
	C896.661987,679.102783 898.131470,678.028198 898.125000,672.827148 
	C897.965271,545.015442 898.000305,417.203369 897.999146,289.391388 
	C897.999084,283.000732 897.993286,282.995911 891.438171,282.995880 
	C768.125427,282.994904 644.812744,282.995148 520.500000,282.995117 
z"/>
<path fill="#EBEBEB" opacity="1.000000" stroke="none" 
	d="
M521.000000,282.995117 
	C644.812744,282.995148 768.125427,282.994904 891.438171,282.995880 
	C897.993286,282.995911 897.999084,283.000732 897.999146,289.391388 
	C898.000305,417.203369 897.965271,545.015442 898.125000,672.827148 
	C898.131470,678.028198 896.661987,679.102783 891.709290,679.100159 
	C657.915100,678.976868 424.120819,678.977478 190.326614,679.096619 
	C185.421555,679.099121 183.877884,678.100098 183.884613,672.850098 
	C184.048599,544.871704 184.040497,416.893005 183.906372,288.914551 
	C183.901245,284.027100 185.326050,282.888306 190.055527,282.893921 
	C300.203583,283.024841 410.351807,282.995148 521.000000,282.995117 
M260.909576,360.850220 
	C260.909576,360.850220 260.802277,360.776642 260.202759,360.941650 
	C259.709625,361.580841 259.216461,362.220062 258.326904,363.020142 
	C258.076874,363.191559 257.926636,363.426666 257.362244,363.948181 
	C257.192963,364.270447 257.023682,364.592712 256.962555,364.932159 
	C256.962555,364.932159 256.885590,364.854279 256.244324,365.005554 
	C255.128281,366.312042 254.012253,367.618500 252.986328,368.988617 
	C252.986328,368.988617 252.924744,368.897095 252.278900,369.073914 
	C243.023346,377.499023 236.162430,387.487366 232.606613,399.568970 
	C232.211044,400.912964 232.553146,402.474060 232.553146,404.830750 
	C234.745300,400.403870 235.945602,396.890900 238.021515,394.008575 
	C242.727325,387.474731 247.864456,381.251526 252.924820,374.919220 
	C252.924820,374.919220 252.908188,374.820496 253.562180,374.705719 
	C257.148438,371.193878 260.734680,367.682068 264.821625,363.955597 
	C265.254883,363.390076 265.688141,362.824524 266.729248,362.074493 
	C267.221375,361.418182 267.713501,360.761841 268.617035,359.936188 
	C268.864807,359.747101 269.018616,359.499634 269.725403,358.984344 
	C272.301849,356.391144 274.536957,353.262421 277.544403,351.345276 
	C281.016388,349.131927 285.320679,346.348419 288.998077,346.687927 
	C299.643524,347.670746 308.919495,344.415436 318.360870,340.424286 
	C326.190277,337.114594 334.334930,334.322327 343.292267,338.748474 
	C343.475128,338.900269 343.657990,339.052063 343.707581,340.006775 
	C341.778503,345.418732 341.221222,351.029572 346.911377,354.150818 
	C354.323242,358.216522 362.199432,361.505310 370.097229,364.555054 
	C371.618195,365.142426 375.442810,363.590057 376.005463,362.159698 
	C378.242615,356.472473 382.554596,355.512299 387.677734,355.738770 
	C390.268250,355.853302 392.843536,356.311646 395.425720,356.614532 
	C393.227356,355.383789 390.915344,354.517273 388.526031,354.139252 
	C382.746582,353.224792 377.245392,353.013092 373.596222,359.180542 
	C373.004211,360.181061 369.585480,360.481628 368.073395,359.791351 
	C362.479187,357.237549 357.075531,354.239960 351.723022,351.193512 
	C348.717102,349.482666 347.131561,347.268768 349.071808,343.381470 
	C350.934601,339.649353 349.722626,335.533051 346.119202,333.855103 
	C341.773499,331.831482 336.619843,329.774200 332.105835,330.286407 
	C324.952393,331.098114 317.897217,333.647217 311.068451,336.182953 
	C305.216156,338.356140 299.565399,340.391663 293.168915,339.597198 
	C281.054047,338.092529 272.817780,343.916992 266.962219,353.943542 
	C266.962219,353.943542 266.938660,353.934265 266.310852,354.116089 
	C264.978668,355.766388 263.646484,357.416656 261.992920,359.277161 
	C261.992920,359.277161 261.842896,359.630646 261.317841,359.867554 
	C261.138367,360.195282 260.958923,360.523010 260.909576,360.850220 
M232.377045,444.231354 
	C232.377045,444.231354 232.039841,443.990753 231.795578,443.365875 
	C228.819916,439.665100 225.844238,435.964355 222.808075,432.188354 
	C223.431061,438.762787 225.699722,444.406677 232.567093,448.237427 
	C237.715225,450.732178 239.581268,455.564606 240.855286,460.553314 
	C242.763351,468.024841 247.629395,472.813110 254.819794,473.808044 
	C261.397552,474.718170 268.332520,474.301666 274.946655,473.342682 
	C281.642792,472.371796 288.063538,469.552155 294.755096,468.476685 
	C297.889343,467.972961 302.080200,468.708527 304.575195,470.540161 
	C312.804871,476.581726 321.452118,476.673492 331.071381,474.562195 
	C331.356781,475.087311 331.642151,475.612427 331.760284,476.589966 
	C331.664612,476.908569 331.666565,477.226562 331.227051,478.076691 
	C329.000916,487.176117 328.434540,496.275421 330.486023,503.803680 
	C332.159546,495.093872 334.095184,485.019989 336.520905,474.210144 
	C336.608734,473.928802 336.696564,473.647430 337.249939,473.133270 
	C337.405823,472.093231 337.561707,471.053162 337.717590,470.013123 
	C336.801819,469.971924 335.886078,469.930756 334.070496,469.735687 
	C328.162354,469.867371 322.254181,469.999023 316.408661,469.923431 
	C316.408661,469.923431 316.390839,469.824707 316.390839,469.824707 
	C316.390839,469.824707 316.424805,470.153198 315.745819,469.952881 
	C314.632965,469.572296 313.520111,469.191711 312.102173,468.314697 
	C311.756561,468.153931 311.410980,467.993164 310.665497,467.303497 
	C310.493652,467.164490 310.321777,467.025513 310.296143,466.921448 
	C310.296143,466.921448 310.267609,466.988342 309.654449,466.547058 
	C307.940979,465.610870 306.227539,464.674652 304.091919,463.181824 
	C301.751770,462.859802 299.411621,462.537750 296.357147,462.062622 
	C295.878784,462.129852 295.400421,462.197113 294.589081,461.929962 
	C293.875153,462.181305 293.161224,462.432648 291.841461,462.551178 
	C291.239685,462.661316 290.637939,462.771423 289.537048,462.664368 
	C288.558899,463.042450 287.580750,463.420563 285.805054,463.784058 
	C279.896271,465.366486 274.042511,467.208160 268.067017,468.476318 
	C256.308838,470.971741 249.340546,467.446136 244.853653,456.531128 
	C242.408447,450.582733 237.768143,447.365662 232.423584,444.641998 
	C232.423584,444.641998 232.374725,444.645599 232.377045,444.231354 
M350.206543,530.633423 
	C355.151428,536.592590 355.330658,537.707336 351.123230,544.196106 
	C346.296753,551.639465 343.548645,559.801514 345.908844,568.372803 
	C349.785614,582.451782 354.546814,596.294434 359.219849,610.140625 
	C360.146881,612.887390 362.020325,615.520325 364.042847,617.649597 
	C368.503815,622.346069 373.140594,626.492493 373.039856,634.004333 
	C372.989624,637.749695 378.182190,639.435852 379.603943,637.998413 
	C378.271271,635.456543 376.044617,633.192444 376.187469,631.089172 
	C376.536438,625.949463 374.469025,622.312134 371.551178,618.427795 
	C368.296875,614.095520 365.180878,609.395386 363.273376,604.373474 
	C359.915222,595.532593 357.910889,586.181213 354.626648,577.307556 
	C350.331268,565.701965 349.866577,554.721130 356.814850,543.901245 
	C359.391205,539.889282 359.049622,535.640991 355.543762,531.670898 
	C355.311493,531.516174 355.079224,531.361389 354.360291,530.507263 
	C354.113861,530.366089 353.867462,530.224854 353.528412,529.759460 
	C353.400940,529.555725 353.218323,529.436218 352.536957,528.806702 
	C352.147034,528.184448 351.757141,527.562195 351.410461,526.336487 
	C348.034546,522.583496 344.658630,518.830566 341.282715,515.077637 
	C341.028778,515.269409 340.774841,515.461182 340.520874,515.652954 
	C343.302155,519.475220 346.083435,523.297424 348.982971,527.594849 
	C348.982971,527.594849 349.291321,527.975220 349.240265,528.523071 
	C349.514648,528.994080 349.789032,529.465149 350.206543,530.633423 
M684.342468,515.117126 
	C678.786682,506.654083 673.230896,498.191040 667.631470,489.661591 
	C671.649719,486.080444 675.512146,482.919220 679.045227,479.424957 
	C684.640503,473.891205 685.615356,467.038391 682.741577,460.066345 
	C680.933167,455.679016 678.032898,451.640900 675.108887,447.841370 
	C671.906189,443.679626 667.400757,441.861694 661.977905,441.896301 
	C642.985596,442.017548 623.991943,441.924866 604.998840,441.941895 
	C603.729858,441.943024 602.461121,442.180969 601.290894,442.298828 
	C601.290894,469.032379 601.290894,495.398193 601.290894,521.675171 
	C607.326843,521.675171 612.910156,521.675171 619.112061,521.675171 
	C619.112061,511.289001 619.112061,501.234802 619.112061,490.876404 
	C628.048889,490.876404 636.366638,490.742737 644.671936,491.004822 
	C646.096497,491.049774 647.897888,492.485016 648.793823,493.782898 
	C654.468506,502.004333 659.880493,510.406799 665.530151,518.646057 
	C666.471558,520.018860 668.101257,521.753845 669.499268,521.835083 
	C675.546936,522.186279 681.626709,521.985474 688.858948,521.985474 
	C687.061096,519.229553 685.914795,517.472534 684.342468,515.117126 
M802.360596,495.529144 
	C801.728638,491.705170 803.469360,490.641937 807.128906,490.798248 
	C813.281006,491.061035 819.452393,490.871613 825.615662,490.871857 
	C834.395630,490.872192 843.175537,490.871948 852.187988,490.871948 
	C852.187988,484.770081 852.187988,479.192352 852.187988,473.024475 
	C835.509338,473.024475 819.110413,473.024475 802.729248,473.024475 
	C802.729248,468.352661 802.729248,464.279114 802.729248,459.561005 
	C821.988647,459.561005 840.875977,459.561005 859.676575,459.561005 
	C859.676575,453.339874 859.676575,447.786530 859.676575,441.920990 
	C840.764709,441.920990 822.291382,441.897827 803.818115,441.929565 
	C792.504456,441.949005 784.806030,449.225800 784.652649,460.481781 
	C784.455261,474.970947 784.447021,489.467926 784.687012,503.956085 
	C784.864014,514.639709 792.572754,521.942688 803.299133,521.987854 
	C820.789246,522.061523 838.279724,522.024170 855.770081,522.007751 
	C857.052124,522.006592 858.334106,521.795776 859.759399,521.669800 
	C859.759399,515.828613 859.759399,510.288116 859.759399,504.111572 
	C840.510132,504.111572 821.616211,504.111572 802.352539,504.111572 
	C802.352539,501.155334 802.352539,498.838867 802.360596,495.529144 
M567.668335,520.359802 
	C577.891968,516.046021 584.426880,508.409821 585.221558,497.405823 
	C585.996826,486.670959 586.068298,475.728668 584.891785,465.048950 
	C583.413025,451.625916 572.415344,442.183990 558.991882,441.812927 
	C546.351440,441.463470 533.681213,441.574432 521.041321,441.996826 
	C508.663055,442.410461 497.412415,452.386078 496.378540,464.775055 
	C495.441406,476.004730 495.378357,487.435852 496.323547,498.660797 
	C497.444092,511.968262 509.247589,521.818298 522.634277,521.963196 
	C534.787964,522.094727 546.945068,522.073608 559.098633,521.938965 
	C561.711792,521.910034 564.316406,521.105347 567.668335,520.359802 
M412.378815,463.637787 
	C412.378815,482.905914 412.378815,502.174042 412.378815,521.730347 
	C418.517365,521.730347 424.098236,521.730347 430.328308,521.730347 
	C430.328308,511.546234 430.328308,501.488007 430.328308,490.812225 
	C447.844543,490.812225 464.726990,490.812225 481.639038,490.812225 
	C481.639038,484.627533 481.639038,479.087555 481.639038,472.936096 
	C464.374847,472.936096 447.507294,472.936096 430.758057,472.936096 
	C430.758057,468.241608 430.758057,464.178009 430.758057,459.587585 
	C450.223236,459.587585 469.288208,459.587585 488.520844,459.587585 
	C488.520844,453.494446 488.520844,447.947754 488.520844,441.918610 
	C486.552307,441.918610 484.923737,441.918427 483.295166,441.918671 
	C466.648956,441.921173 450.002686,441.907318 433.356506,441.931396 
	C419.541321,441.951385 412.531006,448.909912 412.378815,463.637787 
M758.490601,441.665710 
	C746.674561,441.741302 734.842773,441.459991 723.046204,441.979126 
	C706.808777,442.693665 694.512756,455.771210 694.249512,471.990784 
	C694.144226,478.480865 694.113464,484.977264 694.268982,491.465515 
	C694.690552,509.051422 707.716797,521.904480 725.212280,521.999146 
	C739.860535,522.078430 754.509460,522.033081 769.158081,522.009155 
	C770.572510,522.006836 771.986572,521.765137 773.442383,521.630737 
	C773.442383,515.723267 773.442383,510.305603 773.442383,504.281677 
	C771.401306,504.281677 769.614868,504.282166 767.828369,504.281586 
	C754.012024,504.277039 740.195618,504.305176 726.379456,504.256073 
	C716.954712,504.222595 712.008301,499.235565 711.892273,489.710510 
	C711.827332,484.384491 711.797974,479.055908 711.883423,473.730621 
	C712.029724,464.609100 717.080872,459.642792 726.290771,459.608154 
	C740.273376,459.555511 754.256287,459.594055 768.239075,459.593842 
	C769.984619,459.593811 771.730164,459.593781 773.300110,459.593781 
	C773.300110,453.185699 773.300110,447.625214 773.300110,441.666199 
	C768.421204,441.666199 763.952881,441.666199 758.490601,441.665710 
M638.945984,359.826935 
	C638.648376,361.958405 638.100586,364.088959 638.092712,366.221497 
	C638.028687,383.549316 638.057556,400.877563 638.091797,418.205597 
	C638.093994,419.308105 638.377319,420.410126 638.534729,421.546936 
	C643.415588,421.546936 647.986328,421.546936 653.377930,421.546936 
	C653.377930,409.807617 653.377930,398.385040 653.377930,386.962494 
	C657.178467,391.400330 659.930664,395.926331 662.307739,400.641418 
	C664.795471,405.576019 668.557251,408.548950 674.068176,408.433807 
	C679.700867,408.316040 683.650879,405.285217 686.215698,400.204620 
	C688.629089,395.423981 691.371765,390.809601 693.969543,386.122070 
	C694.408203,386.238007 694.846802,386.353912 695.285461,386.469818 
	C695.285461,398.149872 695.285461,409.829926 695.285461,421.511169 
	C700.550598,421.511169 705.114563,421.511169 710.092346,421.511169 
	C710.092346,402.342712 710.130676,383.540710 710.068604,364.739044 
	C710.050415,359.240540 707.170898,355.455444 702.526794,354.319275 
	C697.797607,353.162384 693.598511,355.036102 690.864685,359.865540 
	C687.584351,365.660614 684.532593,371.584717 681.344421,377.432465 
	C679.095337,381.557678 676.783875,385.648834 674.037231,390.587891 
	C672.568726,388.078949 671.700195,386.704254 670.937134,385.273315 
	C666.627136,377.190643 662.388184,369.069763 658.036560,361.009674 
	C653.384399,352.393127 645.785461,351.649841 638.945984,359.826935 
M427.251099,377.199463 
	C425.052612,373.347168 427.218689,369.214569 431.650085,369.061676 
	C435.808350,368.918274 439.975189,369.022217 444.138275,369.021667 
	C455.426086,369.020264 466.713867,369.021179 478.214630,369.021179 
	C478.214630,363.832031 478.214630,359.117767 478.214630,354.068634 
	C463.028717,354.068634 448.211792,354.428406 433.421021,353.960358 
	C420.449585,353.549896 415.614105,359.210449 411.032227,371.744324 
	C409.933807,374.749237 410.451965,379.515228 412.202026,382.168243 
	C417.123138,389.628632 423.262543,395.919556 433.512299,395.494293 
	C440.660309,395.197754 447.831390,395.395416 454.991180,395.468811 
	C458.488953,395.504669 463.743988,399.292511 463.078339,401.417206 
	C461.913910,405.133942 459.751556,407.317413 455.080627,407.166412 
	C442.937042,406.773712 430.772430,407.031433 418.616211,407.029755 
	C416.018341,407.029419 413.420471,407.029724 410.723999,407.029724 
	C410.723999,412.313416 410.723999,416.882660 410.723999,421.723450 
	C427.850067,421.723450 444.652771,422.149445 461.419739,421.559875 
	C471.103760,421.219360 480.510773,406.933960 478.309479,397.458527 
	C478.121552,396.649536 478.008698,395.755615 477.578979,395.080627 
	C472.497345,387.098267 466.480042,380.434174 455.995422,380.394043 
	C449.001556,380.367310 441.996552,380.612274 435.019501,380.268738 
	C432.594452,380.149353 430.238464,378.627808 427.251099,377.199463 
M562.470276,375.590637 
	C562.479065,385.248962 562.414978,394.908020 562.515625,404.565399 
	C562.633057,415.826263 568.674622,421.800842 579.866455,421.848938 
	C588.858459,421.887604 597.850708,421.861938 606.842896,421.863586 
	C613.127869,421.864746 619.412781,421.863831 625.977539,421.863831 
	C625.977539,416.734314 625.977539,412.167114 625.977539,407.001923 
	C623.839111,407.001923 622.045837,407.001740 620.252563,407.001984 
	C607.929993,407.003571 595.603943,406.840881 583.286682,407.097839 
	C579.099121,407.185181 577.412170,406.351013 577.490173,401.687195 
	C577.566528,397.118622 578.485168,395.194946 583.522888,395.444183 
	C591.994812,395.863342 600.502441,395.559509 608.995056,395.563019 
	C619.947937,395.567535 619.791199,395.569153 619.771851,384.777405 
	C619.765198,381.079956 618.325134,380.330750 615.019165,380.392151 
	C605.697144,380.565308 596.369873,380.458282 587.044678,380.451202 
	C577.055725,380.443634 577.052429,380.438202 577.842651,370.346771 
	C577.865051,370.060699 578.138550,369.794250 578.660156,368.875397 
	C594.159607,368.875397 610.024353,368.875397 626.263550,368.875397 
	C626.263550,364.916168 626.025452,361.582397 626.329407,358.298767 
	C626.643982,354.900482 625.342285,353.982147 622.107727,354.011505 
	C607.455017,354.144684 592.799866,354.008453 578.146790,354.117950 
	C570.881714,354.172241 564.972961,358.550201 563.329163,365.233124 
	C562.586670,368.251526 562.730286,371.487823 562.470276,375.590637 
M487.565491,367.910583 
	C489.256134,368.277252 490.941681,368.929779 492.638397,368.960297 
	C499.415588,369.082153 506.196289,369.010590 513.534302,369.010590 
	C513.534302,386.928223 513.534302,404.180573 513.534302,421.501129 
	C518.838745,421.501129 523.558594,421.501129 528.883911,421.501129 
	C528.883911,403.912476 528.883911,386.688812 528.883911,368.940918 
	C537.728333,368.940918 545.976074,368.940918 554.771545,368.940918 
	C554.771545,365.288055 554.535461,362.144409 554.830750,359.051483 
	C555.207764,355.102783 553.805664,353.917480 549.809448,353.970520 
	C533.317932,354.189606 516.821838,354.068573 500.327423,354.069489 
	C487.208008,354.070251 487.208008,354.068329 487.565491,367.910583 
M487.966339,563.465515 
	C496.316040,560.980286 495.314972,552.347290 499.006378,546.730774 
	C496.481934,548.458740 494.086914,550.358459 492.586334,552.806458 
	C490.368591,556.424377 487.545410,558.065552 483.325500,558.469360 
	C476.333588,559.138367 473.194946,562.082642 472.405060,569.198730 
	C471.482178,577.512939 470.239777,585.577759 466.292023,593.145630 
	C464.170258,597.213013 465.783142,600.761292 468.446198,602.476379 
	C469.208344,599.385925 469.144989,595.553345 470.956512,593.111755 
	C475.304932,587.250916 477.444458,580.949097 478.147766,573.795471 
	C478.926605,565.873779 479.472870,565.574463 487.966339,563.465515 
M464.807465,540.447754 
	C463.467224,536.035767 462.127014,531.623779 460.786774,527.211792 
	C460.306305,527.286316 459.825806,527.360840 459.345337,527.435303 
	C459.703979,533.340332 459.925995,539.257446 460.448853,545.147888 
	C461.639771,558.564697 459.899902,561.545654 447.964539,568.151123 
	C443.513580,570.614441 439.469116,573.867310 435.468048,577.047852 
	C434.525482,577.797119 434.507935,579.710083 433.878143,581.668213 
	C435.653442,580.327148 436.497650,579.434326 437.532898,578.949585 
	C443.391663,576.206482 449.341217,573.655273 455.175079,570.861633 
	C465.192230,566.064758 469.035767,557.868164 466.500854,547.034363 
	C466.046143,545.090881 465.523010,543.163330 464.807465,540.447754 
M424.393250,605.735413 
	C422.773682,610.093994 421.642029,614.725586 419.398895,618.735291 
	C417.105621,622.834656 414.023682,626.618835 410.725952,629.992615 
	C407.790558,632.995728 404.087769,635.248718 400.723663,637.832825 
	C412.626221,635.453369 422.274017,630.417786 426.474823,618.477600 
	C428.899536,611.585754 431.751801,604.844666 434.392670,598.028381 
	C436.073547,593.690002 437.719696,589.338135 439.381409,584.992249 
	C438.826782,584.701233 438.272186,584.410156 437.717590,584.119080 
	C433.380005,591.098938 429.042450,598.078735 424.393250,605.735413 
M498.588928,580.151672 
	C503.805267,571.276611 504.005920,561.742188 501.955841,551.710449 
	C498.851471,570.199951 488.673889,585.029236 476.935547,599.776489 
	C483.390442,599.145630 492.023895,591.066162 498.588928,580.151672 
M397.891266,640.146240 
	C397.977905,640.101440 398.064575,640.056580 398.151184,640.011719 
	C398.086884,639.940308 398.022614,639.868896 397.958313,639.797485 
	C397.903107,639.877014 397.847931,639.956482 397.891266,640.146240 
M225.834183,429.197937 
	C225.938019,429.141479 226.041855,429.085022 226.145691,429.028534 
	C226.069748,428.945648 225.993805,428.862793 225.917862,428.779907 
	C225.852203,428.875153 225.786530,428.970398 225.834183,429.197937 
z"/>
<path fill="#7A584C" opacity="1.000000" stroke="none" 
	d="
M684.555542,515.416260 
	C685.914795,517.472534 687.061096,519.229553 688.858948,521.985474 
	C681.626709,521.985474 675.546936,522.186279 669.499268,521.835083 
	C668.101257,521.753845 666.471558,520.018860 665.530151,518.646057 
	C659.880493,510.406799 654.468506,502.004333 648.793823,493.782898 
	C647.897888,492.485016 646.096497,491.049774 644.671936,491.004822 
	C636.366638,490.742737 628.048889,490.876404 619.112061,490.876404 
	C619.112061,501.234802 619.112061,511.289001 619.112061,521.675171 
	C612.910156,521.675171 607.326843,521.675171 601.290894,521.675171 
	C601.290894,495.398193 601.290894,469.032379 601.290894,442.298828 
	C602.461121,442.180969 603.729858,441.943024 604.998840,441.941895 
	C623.991943,441.924866 642.985596,442.017548 661.977905,441.896301 
	C667.400757,441.861694 671.906189,443.679626 675.108887,447.841370 
	C678.032898,451.640900 680.933167,455.679016 682.741577,460.066345 
	C685.615356,467.038391 684.640503,473.891205 679.045227,479.424957 
	C675.512146,482.919220 671.649719,486.080444 667.631470,489.661591 
	C673.230896,498.191040 678.786682,506.654083 684.555542,515.416260 
M633.504395,473.178375 
	C640.496582,473.180695 647.510803,473.507141 654.470825,473.035004 
	C657.498535,472.829620 660.567810,471.262543 663.312622,469.756866 
	C664.546692,469.079865 666.073303,466.447876 665.663513,465.723175 
	C664.372986,463.441376 662.287720,459.990479 660.403748,459.922028 
	C646.811768,459.428375 633.193604,459.657471 619.287720,459.657471 
	C619.287720,464.345062 619.287720,468.550385 619.287720,473.178223 
	C623.909302,473.178223 628.208374,473.178223 633.504395,473.178375 
z"/>
<path fill="#7B594D" opacity="1.000000" stroke="none" 
	d="
M802.356567,496.025757 
	C802.352539,498.838867 802.352539,501.155334 802.352539,504.111572 
	C821.616211,504.111572 840.510132,504.111572 859.759399,504.111572 
	C859.759399,510.288116 859.759399,515.828613 859.759399,521.669800 
	C858.334106,521.795776 857.052124,522.006592 855.770081,522.007751 
	C838.279724,522.024170 820.789246,522.061523 803.299133,521.987854 
	C792.572754,521.942688 784.864014,514.639709 784.687012,503.956085 
	C784.447021,489.467926 784.455261,474.970947 784.652649,460.481781 
	C784.806030,449.225800 792.504456,441.949005 803.818115,441.929565 
	C822.291382,441.897827 840.764709,441.920990 859.676575,441.920990 
	C859.676575,447.786530 859.676575,453.339874 859.676575,459.561005 
	C840.875977,459.561005 821.988647,459.561005 802.729248,459.561005 
	C802.729248,464.279114 802.729248,468.352661 802.729248,473.024475 
	C819.110413,473.024475 835.509338,473.024475 852.187988,473.024475 
	C852.187988,479.192352 852.187988,484.770081 852.187988,490.871948 
	C843.175537,490.871948 834.395630,490.872192 825.615662,490.871857 
	C819.452393,490.871613 813.281006,491.061035 807.128906,490.798248 
	C803.469360,490.641937 801.728638,491.705170 802.356567,496.025757 
z"/>
<path fill="#7B594C" opacity="1.000000" stroke="none" 
	d="
M567.296631,520.508911 
	C564.316406,521.105347 561.711792,521.910034 559.098633,521.938965 
	C546.945068,522.073608 534.787964,522.094727 522.634277,521.963196 
	C509.247589,521.818298 497.444092,511.968262 496.323547,498.660797 
	C495.378357,487.435852 495.441406,476.004730 496.378540,464.775055 
	C497.412415,452.386078 508.663055,442.410461 521.041321,441.996826 
	C533.681213,441.574432 546.351440,441.463470 558.991882,441.812927 
	C572.415344,442.183990 583.413025,451.625916 584.891785,465.048950 
	C586.068298,475.728668 585.996826,486.670959 585.221558,497.405823 
	C584.426880,508.409821 577.891968,516.046021 567.296631,520.508911 
M527.602417,504.285675 
	C537.268005,504.287079 546.933899,504.333466 556.599182,504.275635 
	C564.242676,504.229919 567.831116,500.589294 567.891663,492.858093 
	C567.949036,485.526031 567.950989,478.192657 567.883911,470.860718 
	C567.815979,463.439178 564.209351,459.727234 556.878845,459.665863 
	C546.214111,459.576569 535.547852,459.597534 524.882629,459.642151 
	C516.976990,459.675201 513.639648,462.813049 513.371155,470.801331 
	C513.147339,477.459961 513.277283,484.131226 513.289368,490.796844 
	C513.308167,501.143127 516.386108,504.236908 527.602417,504.285675 
z"/>
<path fill="#7C5A4E" opacity="1.000000" stroke="none" 
	d="
M412.380493,463.162109 
	C412.531006,448.909912 419.541321,441.951385 433.356506,441.931396 
	C450.002686,441.907318 466.648956,441.921173 483.295166,441.918671 
	C484.923737,441.918427 486.552307,441.918610 488.520844,441.918610 
	C488.520844,447.947754 488.520844,453.494446 488.520844,459.587585 
	C469.288208,459.587585 450.223236,459.587585 430.758057,459.587585 
	C430.758057,464.178009 430.758057,468.241608 430.758057,472.936096 
	C447.507294,472.936096 464.374847,472.936096 481.639038,472.936096 
	C481.639038,479.087555 481.639038,484.627533 481.639038,490.812225 
	C464.726990,490.812225 447.844543,490.812225 430.328308,490.812225 
	C430.328308,501.488007 430.328308,511.546234 430.328308,521.730347 
	C424.098236,521.730347 418.517365,521.730347 412.378815,521.730347 
	C412.378815,502.174042 412.378815,482.905914 412.380493,463.162109 
z"/>
<path fill="#7B594D" opacity="1.000000" stroke="none" 
	d="
M758.987610,441.665955 
	C763.952881,441.666199 768.421204,441.666199 773.300110,441.666199 
	C773.300110,447.625214 773.300110,453.185699 773.300110,459.593781 
	C771.730164,459.593781 769.984619,459.593811 768.239075,459.593842 
	C754.256287,459.594055 740.273376,459.555511 726.290771,459.608154 
	C717.080872,459.642792 712.029724,464.609100 711.883423,473.730621 
	C711.797974,479.055908 711.827332,484.384491 711.892273,489.710510 
	C712.008301,499.235565 716.954712,504.222595 726.379456,504.256073 
	C740.195618,504.305176 754.012024,504.277039 767.828369,504.281586 
	C769.614868,504.282166 771.401306,504.281677 773.442383,504.281677 
	C773.442383,510.305603 773.442383,515.723267 773.442383,521.630737 
	C771.986572,521.765137 770.572510,522.006836 769.158081,522.009155 
	C754.509460,522.033081 739.860535,522.078430 725.212280,521.999146 
	C707.716797,521.904480 694.690552,509.051422 694.268982,491.465515 
	C694.113464,484.977264 694.144226,478.480865 694.249512,471.990784 
	C694.512756,455.771210 706.808777,442.693665 723.046204,441.979126 
	C734.842773,441.459991 746.674561,441.741302 758.987610,441.665955 
z"/>
<path fill="#52B156" opacity="1.000000" stroke="none" 
	d="
M639.101318,359.461853 
	C645.785461,351.649841 653.384399,352.393127 658.036560,361.009674 
	C662.388184,369.069763 666.627136,377.190643 670.937134,385.273315 
	C671.700195,386.704254 672.568726,388.078949 674.037231,390.587891 
	C676.783875,385.648834 679.095337,381.557678 681.344421,377.432465 
	C684.532593,371.584717 687.584351,365.660614 690.864685,359.865540 
	C693.598511,355.036102 697.797607,353.162384 702.526794,354.319275 
	C707.170898,355.455444 710.050415,359.240540 710.068604,364.739044 
	C710.130676,383.540710 710.092346,402.342712 710.092346,421.511169 
	C705.114563,421.511169 700.550598,421.511169 695.285461,421.511169 
	C695.285461,409.829926 695.285461,398.149872 695.285461,386.469818 
	C694.846802,386.353912 694.408203,386.238007 693.969543,386.122070 
	C691.371765,390.809601 688.629089,395.423981 686.215698,400.204620 
	C683.650879,405.285217 679.700867,408.316040 674.068176,408.433807 
	C668.557251,408.548950 664.795471,405.576019 662.307739,400.641418 
	C659.930664,395.926331 657.178467,391.400330 653.377930,386.962494 
	C653.377930,398.385040 653.377930,409.807617 653.377930,421.546936 
	C647.986328,421.546936 643.415588,421.546936 638.534729,421.546936 
	C638.377319,420.410126 638.093994,419.308105 638.091797,418.205597 
	C638.057556,400.877563 638.028687,383.549316 638.092712,366.221497 
	C638.100586,364.088959 638.648376,361.958405 639.101318,359.461853 
z"/>
<path fill="#1870BD" opacity="1.000000" stroke="none" 
	d="
M427.551025,377.473083 
	C430.238464,378.627808 432.594452,380.149353 435.019501,380.268738 
	C441.996552,380.612274 449.001556,380.367310 455.995422,380.394043 
	C466.480042,380.434174 472.497345,387.098267 477.578979,395.080627 
	C478.008698,395.755615 478.121552,396.649536 478.309479,397.458527 
	C480.510773,406.933960 471.103760,421.219360 461.419739,421.559875 
	C444.652771,422.149445 427.850067,421.723450 410.723999,421.723450 
	C410.723999,416.882660 410.723999,412.313416 410.723999,407.029724 
	C413.420471,407.029724 416.018341,407.029419 418.616211,407.029755 
	C430.772430,407.031433 442.937042,406.773712 455.080627,407.166412 
	C459.751556,407.317413 461.913910,405.133942 463.078339,401.417206 
	C463.743988,399.292511 458.488953,395.504669 454.991180,395.468811 
	C447.831390,395.395416 440.660309,395.197754 433.512299,395.494293 
	C423.262543,395.919556 417.123138,389.628632 412.202026,382.168243 
	C410.451965,379.515228 409.933807,374.749237 411.032227,371.744324 
	C415.614105,359.210449 420.449585,353.549896 433.421021,353.960358 
	C448.211792,354.428406 463.028717,354.068634 478.214630,354.068634 
	C478.214630,359.117767 478.214630,363.832031 478.214630,369.021179 
	C466.713867,369.021179 455.426086,369.020264 444.138275,369.021667 
	C439.975189,369.022217 435.808350,368.918274 431.650085,369.061676 
	C427.218689,369.214569 425.052612,373.347168 427.551025,377.473083 
z"/>
<path fill="#FB5B28" opacity="1.000000" stroke="none" 
	d="
M562.471069,375.107971 
	C562.730286,371.487823 562.586670,368.251526 563.329163,365.233124 
	C564.972961,358.550201 570.881714,354.172241 578.146790,354.117950 
	C592.799866,354.008453 607.455017,354.144684 622.107727,354.011505 
	C625.342285,353.982147 626.643982,354.900482 626.329407,358.298767 
	C626.025452,361.582397 626.263550,364.916168 626.263550,368.875397 
	C610.024353,368.875397 594.159607,368.875397 578.660156,368.875397 
	C578.138550,369.794250 577.865051,370.060699 577.842651,370.346771 
	C577.052429,380.438202 577.055725,380.443634 587.044678,380.451202 
	C596.369873,380.458282 605.697144,380.565308 615.019165,380.392151 
	C618.325134,380.330750 619.765198,381.079956 619.771851,384.777405 
	C619.791199,395.569153 619.947937,395.567535 608.995056,395.563019 
	C600.502441,395.559509 591.994812,395.863342 583.522888,395.444183 
	C578.485168,395.194946 577.566528,397.118622 577.490173,401.687195 
	C577.412170,406.351013 579.099121,407.185181 583.286682,407.097839 
	C595.603943,406.840881 607.929993,407.003571 620.252563,407.001984 
	C622.045837,407.001740 623.839111,407.001923 625.977539,407.001923 
	C625.977539,412.167114 625.977539,416.734314 625.977539,421.863831 
	C619.412781,421.863831 613.127869,421.864746 606.842896,421.863586 
	C597.850708,421.861938 588.858459,421.887604 579.866455,421.848938 
	C568.674622,421.800842 562.633057,415.826263 562.515625,404.565399 
	C562.414978,394.908020 562.479065,385.248962 562.471069,375.107971 
z"/>
<path fill="#FC9A0C" opacity="1.000000" stroke="none" 
	d="
M487.484528,367.466705 
	C487.208008,354.068329 487.208008,354.070251 500.327423,354.069489 
	C516.821838,354.068573 533.317932,354.189606 549.809448,353.970520 
	C553.805664,353.917480 555.207764,355.102783 554.830750,359.051483 
	C554.535461,362.144409 554.771545,365.288055 554.771545,368.940918 
	C545.976074,368.940918 537.728333,368.940918 528.883911,368.940918 
	C528.883911,386.688812 528.883911,403.912476 528.883911,421.501129 
	C523.558594,421.501129 518.838745,421.501129 513.534302,421.501129 
	C513.534302,404.180573 513.534302,386.928223 513.534302,369.010590 
	C506.196289,369.010590 499.415588,369.082153 492.638397,368.960297 
	C490.941681,368.929779 489.256134,368.277252 487.484528,367.466705 
z"/>
<path fill="#275795" opacity="1.000000" stroke="none" 
	d="
M355.448944,532.053833 
	C359.049622,535.640991 359.391205,539.889282 356.814850,543.901245 
	C349.866577,554.721130 350.331268,565.701965 354.626648,577.307556 
	C357.910889,586.181213 359.915222,595.532593 363.273376,604.373474 
	C365.180878,609.395386 368.296875,614.095520 371.551178,618.427795 
	C374.469025,622.312134 376.536438,625.949463 376.187469,631.089172 
	C376.044617,633.192444 378.271271,635.456543 379.603943,637.998413 
	C378.182190,639.435852 372.989624,637.749695 373.039856,634.004333 
	C373.140594,626.492493 368.503815,622.346069 364.042847,617.649597 
	C362.020325,615.520325 360.146881,612.887390 359.219849,610.140625 
	C354.546814,596.294434 349.785614,582.451782 345.908844,568.372803 
	C343.548645,559.801514 346.296753,551.639465 351.123230,544.196106 
	C355.330658,537.707336 355.151428,536.592590 350.328369,530.123596 
	C350.063873,529.067566 349.677612,528.521423 349.291321,527.975220 
	C349.291321,527.975220 348.982971,527.594849 349.070801,527.142700 
	C349.894806,526.773682 350.631012,526.856812 351.367218,526.939941 
	C351.757141,527.562195 352.147034,528.184448 352.813477,529.258545 
	C353.216705,529.906311 353.393707,530.030701 353.621033,530.083618 
	C353.867462,530.224854 354.113861,530.366089 354.639435,530.983582 
	C355.029633,531.718384 355.206421,531.916382 355.448944,532.053833 
z"/>
<path fill="#2568AF" opacity="1.000000" stroke="none" 
	d="
M336.784363,473.366089 
	C336.696564,473.647430 336.608734,473.928802 336.022552,474.746277 
	C334.697784,477.039978 333.871399,478.797516 332.666779,481.359375 
	C332.242126,479.560364 332.004150,478.552185 331.766174,477.543976 
	C331.666565,477.226562 331.664612,476.908569 331.872986,476.014648 
	C331.541382,475.002686 331.097137,474.566040 330.652893,474.129395 
	C321.452118,476.673492 312.804871,476.581726 304.575195,470.540161 
	C302.080200,468.708527 297.889343,467.972961 294.755096,468.476685 
	C288.063538,469.552155 281.642792,472.371796 274.946655,473.342682 
	C268.332520,474.301666 261.397552,474.718170 254.819794,473.808044 
	C247.629395,472.813110 242.763351,468.024841 240.855286,460.553314 
	C239.581268,455.564606 237.715225,450.732178 232.321014,447.586792 
	C232.205597,446.163696 232.336258,445.391266 232.466919,444.618835 
	C237.768143,447.365662 242.408447,450.582733 244.853653,456.531128 
	C249.340546,467.446136 256.308838,470.971741 268.067017,468.476318 
	C274.042511,467.208160 279.896271,465.366486 286.588654,463.859436 
	C288.260223,463.583740 289.148193,463.232635 290.036133,462.881531 
	C290.637939,462.771423 291.239685,462.661316 292.475067,462.713501 
	C293.713135,462.671997 294.317596,462.468201 294.922058,462.264404 
	C295.400421,462.197113 295.878784,462.129852 296.988037,462.385376 
	C299.917328,463.051575 302.215698,463.394989 304.514099,463.738434 
	C306.227539,464.674652 307.940979,465.610870 309.947662,466.741882 
	C310.240875,466.936737 310.149933,466.886536 310.149933,466.886536 
	C310.321777,467.025513 310.493652,467.164490 310.986877,467.846802 
	C311.674622,468.530426 312.040955,468.670746 312.407257,468.811096 
	C313.520111,469.191711 314.632965,469.572296 316.070831,470.026917 
	C316.395844,470.100952 316.346039,470.130676 316.346039,470.130676 
	C322.254181,469.999023 328.162354,469.867371 334.638733,470.081787 
	C335.732788,471.407288 336.258575,472.386688 336.784363,473.366089 
z"/>
<path fill="#407BB5" opacity="1.000000" stroke="none" 
	d="
M266.934906,353.934875 
	C272.817780,343.916992 281.054047,338.092529 293.168915,339.597198 
	C299.565399,340.391663 305.216156,338.356140 311.068451,336.182953 
	C317.897217,333.647217 324.952393,331.098114 332.105835,330.286407 
	C336.619843,329.774200 341.773499,331.831482 346.119202,333.855103 
	C349.722626,335.533051 350.934601,339.649353 349.071808,343.381470 
	C347.131561,347.268768 348.717102,349.482666 351.723022,351.193512 
	C357.075531,354.239960 362.479187,357.237549 368.073395,359.791351 
	C369.585480,360.481628 373.004211,360.181061 373.596222,359.180542 
	C377.245392,353.013092 382.746582,353.224792 388.526031,354.139252 
	C390.915344,354.517273 393.227356,355.383789 395.425720,356.614532 
	C392.843536,356.311646 390.268250,355.853302 387.677734,355.738770 
	C382.554596,355.512299 378.242615,356.472473 376.005463,362.159698 
	C375.442810,363.590057 371.618195,365.142426 370.097229,364.555054 
	C362.199432,361.505310 354.323242,358.216522 346.911377,354.150818 
	C341.221222,351.029572 341.778503,345.418732 343.983002,339.823425 
	C344.221558,341.368744 343.904205,343.150696 344.219727,344.812439 
	C344.602661,346.829132 345.519684,348.744385 346.205627,350.703522 
	C347.006531,348.024933 346.793793,345.796967 347.307678,343.751526 
	C348.482880,339.073944 345.020447,332.273010 340.258484,332.247162 
	C333.398560,332.209869 326.025482,332.127106 319.783051,334.481201 
	C309.754242,338.263214 300.123901,341.876709 289.084381,341.250000 
	C285.216797,341.030396 280.849579,343.187195 277.314087,345.278961 
	C273.486969,347.543274 270.364624,350.998871 266.934906,353.934875 
z"/>
<path fill="#28508C" opacity="1.000000" stroke="none" 
	d="
M487.599640,563.582153 
	C479.472870,565.574463 478.926605,565.873779 478.147766,573.795471 
	C477.444458,580.949097 475.304932,587.250916 470.956512,593.111755 
	C469.144989,595.553345 469.208344,599.385925 468.446198,602.476379 
	C465.783142,600.761292 464.170258,597.213013 466.292023,593.145630 
	C470.239777,585.577759 471.482178,577.512939 472.405060,569.198730 
	C473.194946,562.082642 476.333588,559.138367 483.325500,558.469360 
	C487.545410,558.065552 490.368591,556.424377 492.586334,552.806458 
	C494.086914,550.358459 496.481934,548.458740 499.006378,546.730774 
	C495.314972,552.347290 496.316040,560.980286 487.599640,563.582153 
z"/>
<path fill="#28508C" opacity="1.000000" stroke="none" 
	d="
M464.919464,540.838135 
	C465.523010,543.163330 466.046143,545.090881 466.500854,547.034363 
	C469.035767,557.868164 465.192230,566.064758 455.175079,570.861633 
	C449.341217,573.655273 443.391663,576.206482 437.532898,578.949585 
	C436.497650,579.434326 435.653442,580.327148 433.878143,581.668213 
	C434.507935,579.710083 434.525482,577.797119 435.468048,577.047852 
	C439.469116,573.867310 443.513580,570.614441 447.964539,568.151123 
	C459.899902,561.545654 461.639771,558.564697 460.448853,545.147888 
	C459.925995,539.257446 459.703979,533.340332 459.345337,527.435303 
	C459.825806,527.360840 460.306305,527.286316 460.786774,527.211792 
	C462.127014,531.623779 463.467224,536.035767 464.919464,540.838135 
z"/>
<path fill="#28508C" opacity="1.000000" stroke="none" 
	d="
M424.549072,605.396973 
	C429.042450,598.078735 433.380005,591.098938 437.717590,584.119080 
	C438.272186,584.410156 438.826782,584.701233 439.381409,584.992249 
	C437.719696,589.338135 436.073547,593.690002 434.392670,598.028381 
	C431.751801,604.844666 428.899536,611.585754 426.474823,618.477600 
	C422.274017,630.417786 412.626221,635.453369 400.723663,637.832825 
	C404.087769,635.248718 407.790558,632.995728 410.725952,629.992615 
	C414.023682,626.618835 417.105621,622.834656 419.398895,618.735291 
	C421.642029,614.725586 422.773682,610.093994 424.549072,605.396973 
z"/>
<path fill="#1870BD" opacity="1.000000" stroke="none" 
	d="
M266.948547,353.939209 
	C270.364624,350.998871 273.486969,347.543274 277.314087,345.278961 
	C280.849579,343.187195 285.216797,341.030396 289.084381,341.250000 
	C300.123901,341.876709 309.754242,338.263214 319.783051,334.481201 
	C326.025482,332.127106 333.398560,332.209869 340.258484,332.247162 
	C345.020447,332.273010 348.482880,339.073944 347.307678,343.751526 
	C346.793793,345.796967 347.006531,348.024933 346.205627,350.703522 
	C345.519684,348.744385 344.602661,346.829132 344.219727,344.812439 
	C343.904205,343.150696 344.221558,341.368744 344.049622,339.421967 
	C343.657990,339.052063 343.475128,338.900269 343.081970,338.051941 
	C340.632416,336.568604 338.272797,334.881836 336.176361,335.162323 
	C329.678833,336.031616 322.858490,336.664062 316.942963,339.203979 
	C307.775848,343.140045 298.747498,345.746826 288.659698,345.096954 
	C280.481262,344.570129 272.166504,351.017365 269.078461,359.193726 
	C269.018616,359.499634 268.864807,359.747101 268.052490,360.024475 
	C267.032440,360.828156 266.576935,361.543549 266.121399,362.258972 
	C265.688141,362.824524 265.254883,363.390076 264.205627,364.035248 
	C260.029144,367.683441 256.468658,371.251953 252.908188,374.820496 
	C252.908188,374.820496 252.924820,374.919220 252.537216,374.918884 
	C251.737991,374.143799 250.849869,373.244049 251.013519,372.620209 
	C251.359131,371.302734 252.254745,370.129486 252.924744,368.897095 
	C252.924744,368.897095 252.986328,368.988617 253.296997,368.954712 
	C254.700317,367.565308 255.792953,366.209808 256.885590,364.854279 
	C256.885590,364.854279 256.962555,364.932159 257.183289,364.833038 
	C257.561432,364.397797 257.718781,364.061646 257.876160,363.725525 
	C257.926636,363.426666 258.076874,363.191559 258.884827,362.948059 
	C259.895905,362.176178 260.349091,361.476410 260.802277,360.776642 
	C260.802277,360.776642 260.909576,360.850220 261.136353,360.768982 
	C261.523071,360.335388 261.682983,359.983032 261.842896,359.630646 
	C261.842896,359.630646 261.992920,359.277161 262.497864,359.155701 
	C264.314758,357.334259 265.626709,355.634277 266.938660,353.934265 
	C266.938660,353.934265 266.962219,353.943542 266.948547,353.939209 
z"/>
<path fill="#28508C" opacity="1.000000" stroke="none" 
	d="
M498.422363,580.479492 
	C492.023895,591.066162 483.390442,599.145630 476.935547,599.776489 
	C488.673889,585.029236 498.851471,570.199951 501.955841,551.710449 
	C504.005920,561.742188 503.805267,571.276611 498.422363,580.479492 
z"/>
<path fill="#407BB5" opacity="1.000000" stroke="none" 
	d="
M269.401917,359.089050 
	C272.166504,351.017365 280.481262,344.570129 288.659698,345.096954 
	C298.747498,345.746826 307.775848,343.140045 316.942963,339.203979 
	C322.858490,336.664062 329.678833,336.031616 336.176361,335.162323 
	C338.272797,334.881836 340.632416,336.568604 342.911865,337.738647 
	C334.334930,334.322327 326.190277,337.114594 318.360870,340.424286 
	C308.919495,344.415436 299.643524,347.670746 288.998077,346.687927 
	C285.320679,346.348419 281.016388,349.131927 277.544403,351.345276 
	C274.536957,353.262421 272.301849,356.391144 269.401917,359.089050 
z"/>
<path fill="#407BB5" opacity="1.000000" stroke="none" 
	d="
M252.601822,368.985504 
	C252.254745,370.129486 251.359131,371.302734 251.013519,372.620209 
	C250.849869,373.244049 251.737991,374.143799 252.487915,374.910278 
	C247.864456,381.251526 242.727325,387.474731 238.021515,394.008575 
	C235.945602,396.890900 234.745300,400.403870 232.553146,404.830750 
	C232.553146,402.474060 232.211044,400.912964 232.606613,399.568970 
	C236.162430,387.487366 243.023346,377.499023 252.601822,368.985504 
M248.612686,376.515778 
	C248.612686,376.515778 248.473419,376.606537 248.612686,376.515778 
z"/>
<path fill="#407BB5" opacity="1.000000" stroke="none" 
	d="
M331.496613,477.810333 
	C332.004150,478.552185 332.242126,479.560364 332.666779,481.359375 
	C333.871399,478.797516 334.697784,477.039978 335.777527,475.114258 
	C334.095184,485.019989 332.159546,495.093872 330.486023,503.803680 
	C328.434540,496.275421 329.000916,487.176117 331.496613,477.810333 
M331.695892,485.185089 
	C331.590515,485.022095 331.485107,484.859070 331.379730,484.696045 
	C331.397675,484.928192 331.415619,485.160339 331.695892,485.185089 
z"/>
<path fill="#407BB5" opacity="1.000000" stroke="none" 
	d="
M232.445251,444.630432 
	C232.336258,445.391266 232.205597,446.163696 232.083954,447.330109 
	C225.699722,444.406677 223.431061,438.762787 222.808075,432.188354 
	C225.844238,435.964355 228.819916,439.665100 231.650269,443.716797 
	C231.279861,444.229218 231.054749,444.390686 230.829651,444.552155 
	C231.344681,444.583282 231.859695,444.614441 232.374725,444.645599 
	C232.374725,444.645599 232.423584,444.641998 232.445251,444.630432 
z"/>
<path fill="#407BB5" opacity="1.000000" stroke="none" 
	d="
M351.388855,526.638184 
	C350.631012,526.856812 349.894806,526.773682 349.011658,526.905151 
	C346.083435,523.297424 343.302155,519.475220 340.520874,515.652954 
	C340.774841,515.461182 341.028778,515.269409 341.282715,515.077637 
	C344.658630,518.830566 348.034546,522.583496 351.388855,526.638184 
z"/>
<path fill="#407BB5" opacity="1.000000" stroke="none" 
	d="
M253.235184,374.763123 
	C256.468658,371.251953 260.029144,367.683441 263.955261,364.142578 
	C260.734680,367.682068 257.148438,371.193878 253.235184,374.763123 
z"/>
<path fill="#407BB5" opacity="1.000000" stroke="none" 
	d="
M266.624756,354.025177 
	C265.626709,355.634277 264.314758,357.334259 262.658569,359.050598 
	C263.646484,357.416656 264.978668,355.766388 266.624756,354.025177 
z"/>
<path fill="#407BB5" opacity="1.000000" stroke="none" 
	d="
M304.303009,463.460144 
	C302.215698,463.394989 299.917328,463.051575 297.345215,462.461914 
	C299.411621,462.537750 301.751770,462.859802 304.303009,463.460144 
z"/>
<path fill="#407BB5" opacity="1.000000" stroke="none" 
	d="
M337.017151,473.249695 
	C336.258575,472.386688 335.732788,471.407288 335.088654,470.158752 
	C335.886078,469.930756 336.801819,469.971924 337.717590,470.013123 
	C337.561707,471.053162 337.405823,472.093231 337.017151,473.249695 
z"/>
<path fill="#407BB5" opacity="1.000000" stroke="none" 
	d="
M256.564941,364.929932 
	C255.792953,366.209808 254.700317,367.565308 253.251953,368.922913 
	C254.012253,367.618500 255.128281,366.312042 256.564941,364.929932 
z"/>
<path fill="#407BB5" opacity="1.000000" stroke="none" 
	d="
M289.786591,462.772949 
	C289.148193,463.232635 288.260223,463.583740 286.987427,463.866760 
	C287.580750,463.420563 288.558899,463.042450 289.786591,462.772949 
z"/>
<path fill="#407BB5" opacity="1.000000" stroke="none" 
	d="
M349.265808,528.249146 
	C349.677612,528.521423 350.063873,529.067566 350.256775,529.774963 
	C349.789032,529.465149 349.514648,528.994080 349.265808,528.249146 
z"/>
<path fill="#28508C" opacity="1.000000" stroke="none" 
	d="
M397.841980,640.091125 
	C397.847931,639.956482 397.903107,639.877014 397.958313,639.797485 
	C398.022614,639.868896 398.086884,639.940308 398.151184,640.011719 
	C398.064575,640.056580 397.977905,640.101440 397.841980,640.091125 
z"/>
<path fill="#407BB5" opacity="1.000000" stroke="none" 
	d="
M294.755554,462.097168 
	C294.317596,462.468201 293.713135,462.671997 292.777985,462.779907 
	C293.161224,462.432648 293.875153,462.181305 294.755554,462.097168 
z"/>
<path fill="#407BB5" opacity="1.000000" stroke="none" 
	d="
M225.777527,429.131775 
	C225.786530,428.970398 225.852203,428.875153 225.917862,428.779907 
	C225.993805,428.862793 226.069748,428.945648 226.145691,429.028534 
	C226.041855,429.085022 225.938019,429.141479 225.777527,429.131775 
z"/>
<path fill="#407BB5" opacity="1.000000" stroke="none" 
	d="
M260.502502,360.859131 
	C260.349091,361.476410 259.895905,362.176178 259.083008,362.867615 
	C259.216461,362.220062 259.709625,361.580841 260.502502,360.859131 
z"/>
<path fill="#407BB5" opacity="1.000000" stroke="none" 
	d="
M266.425323,362.166748 
	C266.576935,361.543549 267.032440,360.828156 267.846802,360.109131 
	C267.713501,360.761841 267.221375,361.418182 266.425323,362.166748 
z"/>
<path fill="#407BB5" opacity="1.000000" stroke="none" 
	d="
M330.862122,474.345795 
	C331.097137,474.566040 331.541382,475.002686 331.956604,475.788452 
	C331.642151,475.612427 331.356781,475.087311 330.862122,474.345795 
z"/>
<path fill="#2568AF" opacity="1.000000" stroke="none" 
	d="
M232.375885,444.438477 
	C231.859695,444.614441 231.344681,444.583282 230.829651,444.552155 
	C231.054749,444.390686 231.279861,444.229218 231.772400,444.029236 
	C232.039841,443.990753 232.377045,444.231354 232.375885,444.438477 
z"/>
<path fill="#407BB5" opacity="1.000000" stroke="none" 
	d="
M355.496338,531.862366 
	C355.206421,531.916382 355.029633,531.718384 354.882751,531.333252 
	C355.079224,531.361389 355.311493,531.516174 355.496338,531.862366 
z"/>
<path fill="#407BB5" opacity="1.000000" stroke="none" 
	d="
M316.377350,470.027039 
	C316.346039,470.130676 316.395844,470.100952 316.410339,470.127075 
	C316.424805,470.153198 316.390839,469.824707 316.390839,469.824707 
	C316.390839,469.824707 316.408661,469.923431 316.377350,470.027039 
z"/>
<path fill="#407BB5" opacity="1.000000" stroke="none" 
	d="
M312.254700,468.562866 
	C312.040955,468.670746 311.674622,468.530426 311.186829,468.111237 
	C311.410980,467.993164 311.756561,468.153931 312.254700,468.562866 
z"/>
<path fill="#407BB5" opacity="1.000000" stroke="none" 
	d="
M310.223022,466.903992 
	C310.149933,466.886536 310.240875,466.936737 310.254242,466.962524 
	C310.267609,466.988342 310.296143,466.921448 310.223022,466.903992 
z"/>
<path fill="#407BB5" opacity="1.000000" stroke="none" 
	d="
M353.574707,529.921509 
	C353.393707,530.030701 353.216705,529.906311 353.035278,529.555603 
	C353.218323,529.436218 353.400940,529.555725 353.574707,529.921509 
z"/>
<path fill="#407BB5" opacity="1.000000" stroke="none" 
	d="
M257.619202,363.836853 
	C257.718781,364.061646 257.561432,364.397797 257.129211,364.824463 
	C257.023682,364.592712 257.192963,364.270447 257.619202,363.836853 
z"/>
<path fill="#407BB5" opacity="1.000000" stroke="none" 
	d="
M261.580383,359.749084 
	C261.682983,359.983032 261.523071,360.335388 261.071320,360.769257 
	C260.958923,360.523010 261.138367,360.195282 261.580383,359.749084 
z"/>
<path fill="#EBEAEA" opacity="1.000000" stroke="none" 
	d="
M633.005981,473.178284 
	C628.208374,473.178223 623.909302,473.178223 619.287720,473.178223 
	C619.287720,468.550385 619.287720,464.345062 619.287720,459.657471 
	C633.193604,459.657471 646.811768,459.428375 660.403748,459.922028 
	C662.287720,459.990479 664.372986,463.441376 665.663513,465.723175 
	C666.073303,466.447876 664.546692,469.079865 663.312622,469.756866 
	C660.567810,471.262543 657.498535,472.829620 654.470825,473.035004 
	C647.510803,473.507141 640.496582,473.180695 633.005981,473.178284 
z"/>
<path fill="#EBEAEA" opacity="1.000000" stroke="none" 
	d="
M527.121521,504.284485 
	C516.386108,504.236908 513.308167,501.143127 513.289368,490.796844 
	C513.277283,484.131226 513.147339,477.459961 513.371155,470.801331 
	C513.639648,462.813049 516.976990,459.675201 524.882629,459.642151 
	C535.547852,459.597534 546.214111,459.576569 556.878845,459.665863 
	C564.209351,459.727234 567.815979,463.439178 567.883911,470.860718 
	C567.950989,478.192657 567.949036,485.526031 567.891663,492.858093 
	C567.831116,500.589294 564.242676,504.229919 556.599182,504.275635 
	C546.933899,504.333466 537.268005,504.287079 527.121521,504.284485 
z"/>
<path fill="#1870BD" opacity="1.000000" stroke="none" 
	d="
M248.543060,376.561157 
	C248.473419,376.606537 248.612686,376.515778 248.543060,376.561157 
z"/>
<path fill="#2568AF" opacity="1.000000" stroke="none" 
	d="
M331.564758,485.288788 
	C331.415619,485.160339 331.397675,484.928192 331.379700,484.696045 
	C331.485107,484.859070 331.590515,485.022095 331.564758,485.288788 
z"/>
</svg>